<?xml version="1.0" standalone="no"?>
<!DOCTYPE svg PUBLIC "-//W3C//DTD SVG 20010904//EN"
 "http://www.w3.org/TR/2001/REC-SVG-20010904/DTD/svg10.dtd">
<svg version="1.0" xmlns="http://www.w3.org/2000/svg"
 width="203.000000pt" height="203.000000pt" viewBox="0 0 203.000000 203.000000"
 preserveAspectRatio="xMidYMid meet">
<metadata>
Created by potrace 1.14, written by Peter Selinger 2001-2017
</metadata>
<g transform="translate(0.000000,203.000000) scale(0.100000,-0.100000)"
fill="#000000" stroke="none">
<path d="M210 995 l0 -745 -65 0 c-63 0 -65 -1 -65 -25 0 -24 2 -25 65 -25
l65 0 0 -65 c0 -63 1 -65 25 -65 24 0 25 2 25 65 l0 65 745 0 745 0 0 25 0 25
-102 1 c-57 0 -391 1 -743 2 l-640 2 -2 715 c0 393 -2 727 -2 743 -1 22 -6 27
-26 27 l-25 0 0 -745z"/>
<path d="M1525 1008 l0 -563 90 1 c50 1 96 2 103 3 9 1 12 120 12 561 l0 560
-102 0 -103 0 0 -562z m150 0 l1 -508 -48 0 -48 0 0 511 0 510 48 -3 47 -3 0
-507z"/>
<path d="M1298 1432 l-38 -3 -1 -162 c0 -173 0 -676 1 -767 l0 -55 100 0 100
0 0 492 0 493 -32 1 c-18 0 -46 1 -63 2 -16 1 -47 1 -67 -1z m112 -492 l0
-440 -50 0 -50 0 0 440 0 440 50 0 50 0 0 -440z"/>
<path d="M990 835 c0 -212 3 -386 8 -386 33 -6 185 -3 188 3 4 6 7 559 5 731
l-1 37 -100 0 -100 0 0 -385z m150 0 l0 -335 -49 0 -49 0 0 335 0 335 49 0 49
0 0 -335z"/>
<path d="M722 727 l0 -282 101 0 102 0 0 283 0 282 -102 0 -101 0 0 -283z
m150 46 c2 -104 2 -208 0 -233 l-3 -45 -47 3 -48 4 1 229 0 229 47 0 47 0 3
-187z"/>
<path d="M456 645 c1 -99 2 -184 3 -190 0 -6 42 -10 100 -10 l99 0 -2 190 -1
190 -100 0 -100 1 1 -181z m149 -8 l1 -137 -48 0 -48 0 0 134 c0 147 -2 142
64 140 l30 -1 1 -136z"/>
</g>
</svg>
