<?xml version="1.0" encoding="UTF-8"?>
<svg version="1.1" xmlns="http://www.w3.org/2000/svg" width="143" height="143">
<path d="M0 0 C2.97994708 1.69504354 5.93021736 3.43191933 8.87255859 5.19140625 C9.92040527 5.81281494 10.96825195 6.43422363 12.04785156 7.07446289 C14.13561212 8.31339791 16.22191776 9.55478847 18.30664062 10.79882812 C20.81368609 12.28391765 23.33384823 13.73881493 25.86865234 15.17578125 C35.19900054 20.50040689 41.80073889 25.30593657 45.46630859 35.78125 C47.25142465 42.54334722 47.78094749 47.69361585 44.22412109 53.95703125 C42.12696453 57.00053234 39.83641431 59.87834251 37.5234375 62.75927734 C34.73729123 66.39112725 32.45023975 70.36780617 30.07177734 74.2734375 C28.18505859 76.50390625 28.18505859 76.50390625 25.76708984 77.640625 C23.18505859 77.50390625 23.18505859 77.50390625 20.56005859 75.671875 C17.49413546 71.5822966 16.44631986 67.71437206 15.18505859 62.81640625 C13.37692082 56.28010905 11.49280142 50.23588612 8.16552734 44.28125 C7.18505859 42.50390625 7.18505859 42.50390625 6.18505859 39.50390625 C4.60776142 39.19988523 3.02252331 38.93686684 1.43505859 38.69140625 C0.55333984 38.54058594 -0.32837891 38.38976563 -1.23681641 38.234375 C-3.97395614 38.26375077 -3.97395614 38.26375077 -5.95556641 40.4453125 C-8.27228971 44.25622499 -9.5499787 47.99621641 -10.81494141 52.25390625 C-11.07057861 53.0843042 -11.32621582 53.91470215 -11.58959961 54.77026367 C-13.49262599 61.08036154 -15.09436567 67.44243966 -16.43408203 73.89550781 C-17.55239233 79.09796979 -18.99528357 83.68424841 -22.81494141 87.50390625 C-25.18994141 87.62890625 -25.18994141 87.62890625 -27.81494141 86.50390625 C-29.45361485 83.8274063 -30.61131565 81.38776126 -31.81494141 78.50390625 C-32.66900806 76.48856232 -33.52817608 74.47560311 -34.39355469 72.46508789 C-34.99748149 71.05672548 -35.59255451 69.64452598 -36.17773438 68.22827148 C-37.91020041 64.14516629 -39.72237658 60.76828024 -42.81494141 57.50390625 C-45.75603999 56.26339818 -45.75603999 56.26339818 -48.81494141 56.50390625 C-53.44196872 60.10684301 -55.32933227 65.30453421 -57.72705078 70.484375 C-59.93029476 75.0994541 -62.38687502 78.70024303 -65.81494141 82.50390625 C-69.04568419 82.23467768 -70.49238047 81.82646718 -72.81494141 79.50390625 C-74.99988151 76.22649609 -76.90753649 72.86636003 -78.76416016 69.39453125 C-79.67453173 67.55279844 -79.67453173 67.55279844 -80.81494141 66.50390625 C-81.12838155 62.03230432 -81.09364645 57.54761702 -81.12744141 53.06640625 C-81.15644531 51.81923828 -81.18544922 50.57207031 -81.21533203 49.28710938 C-81.28413959 39.21474144 -79.69149676 30.60864787 -72.60791016 23.0703125 C-69.03654894 19.9502344 -64.94052063 17.80460949 -60.81494141 15.50390625 C-58.82342487 14.33568945 -56.83910226 13.15573737 -54.85449219 11.97583008 C-48.31278979 8.09404615 -41.73517517 4.27212547 -35.12744141 0.50390625 C-34.48081543 0.13031982 -33.83418945 -0.2432666 -33.16796875 -0.62817383 C-20.92564446 -7.55715627 -12.09871791 -6.43026395 0 0 Z " fill="#2278E9" transform="translate(88.81494140625,5.49609375)"/>
<path d="M0 0 C1.84765625 0.15625 1.84765625 0.15625 4 1 C5.30859375 3.34375 5.30859375 3.34375 6.4375 6.5 C6.85644531 7.66660156 7.27539062 8.83320312 7.70703125 10.03515625 C9.36572136 15.0036699 10.83079584 20.03388693 12.21264648 25.0859375 C13.62963524 30.16573116 15.01702315 35.05412667 18.87890625 38.84375 C21.38943989 40.21229136 23.08595022 40.46484993 25.9375 40.5 C27.18853516 40.54640625 27.18853516 40.54640625 28.46484375 40.59375 C33.28377652 39.46512476 35.54529334 35.6731916 38.203125 31.73828125 C38.87859375 30.60777344 39.5540625 29.47726563 40.25 28.3125 C40.600625 27.73177734 40.95125 27.15105469 41.3125 26.55273438 C42.60808061 24.39758586 43.87507391 22.24985218 45 20 C45.66 20 46.32 20 47 20 C47.10007438 23.94677971 47.17202516 27.89305205 47.21972656 31.84082031 C47.24935477 33.83164478 47.30022326 35.82211708 47.3515625 37.8125 C47.44667218 47.22835826 46.43835791 56.27593662 39.77001953 63.53125 C37.40232614 65.49594565 34.87240843 67.02829925 32.2421875 68.625 C31.6737059 68.97080109 31.1052243 69.31660217 30.51951599 69.67288208 C28.68277228 70.78714319 26.84209258 71.89460633 25 73 C24.39223724 73.36510681 23.78447449 73.73021362 23.15829468 74.10638428 C19.43455914 76.33935413 15.70057035 78.55433254 11.95874023 80.75683594 C10.68057846 81.51053504 9.40391291 82.26677659 8.12866211 83.02539062 C6.24655157 84.14488285 4.36016267 85.256823 2.47265625 86.3671875 C1.37187744 87.01800293 0.27109863 87.66881836 -0.86303711 88.33935547 C-8.70718681 92.49188923 -16.85295169 93.40909261 -25.5390625 91.41796875 C-32.05127416 89.03306181 -37.90059794 85.200542 -43.77734375 81.5703125 C-46.79887516 79.71101968 -49.85426918 77.92789015 -52.94140625 76.1796875 C-53.78131104 75.70281494 -54.62121582 75.22594238 -55.48657227 74.73461914 C-57.11801656 73.81153385 -58.75246455 72.89372977 -60.39038086 71.98217773 C-67.20161311 68.10855633 -73.56219469 64.18063594 -76.875 56.8125 C-77.26429687 55.97332031 -77.65359375 55.13414063 -78.0546875 54.26953125 C-79.8105812 50.05393521 -80.10759471 46.86706569 -80.0625 42.3125 C-80.05347656 41.13300781 -80.04445313 39.95351562 -80.03515625 38.73828125 C-80.02355469 37.83464844 -80.01195313 36.93101563 -80 36 C-79.34 36 -78.68 36 -78 36 C-77.608125 36.7425 -77.21625 37.485 -76.8125 38.25 C-74.4694912 41.80490991 -71.98681648 43.54638461 -68 45 C-64.16225161 45.07675497 -62.58804279 44.47215813 -59.6015625 42.07421875 C-55.359801 37.67808184 -53.60095662 31.53545916 -51.39453125 25.953125 C-51.02714844 25.0765625 -50.65976562 24.2 -50.28125 23.296875 C-49.80268555 22.09562988 -49.80268555 22.09562988 -49.31445312 20.87011719 C-48 19 -48 19 -45.35742188 18.23144531 C-44.19049805 18.11687988 -44.19049805 18.11687988 -43 18 C-42.74831055 18.69561035 -42.49662109 19.3912207 -42.23730469 20.10791016 C-41.08308748 23.28332991 -39.91667295 26.45413654 -38.75 29.625 C-38.35425781 30.71941406 -37.95851562 31.81382813 -37.55078125 32.94140625 C-34.6306873 40.94084097 -34.6306873 40.94084097 -30 48 C-25.95738368 49.34753877 -21.99006124 49.75959769 -17.93530273 48.21191406 C-13.10512196 45.18718625 -11.40244382 39.52551052 -10.01123047 34.25195312 C-9.05609129 29.93676271 -8.23896282 25.5959404 -7.4375 21.25 C-6.89041185 18.29336887 -6.32385966 15.34139499 -5.74609375 12.390625 C-5.62930771 11.7228302 -5.51252167 11.0550354 -5.39219666 10.36700439 C-4.52854597 5.9598442 -3.04452062 3.28155689 0 0 Z " fill="#2379E9" transform="translate(88,48)"/>
<path d="M0 0 C0.66 0 1.32 0 2 0 C3.02611949 1.65071396 4.02308143 3.31970006 5 5 C6.58245275 6.75149165 6.58245275 6.75149165 8 8 C6.02 7.34 4.04 6.68 2 6 C2 9.3 2 12.6 2 16 C-0.42130331 12.36804504 -0.21022785 10.61650652 -0.125 6.3125 C-0.09792969 4.54326172 -0.09792969 4.54326172 -0.0703125 2.73828125 C-0.04710937 1.83464844 -0.02390625 0.93101563 0 0 Z " fill="#80B2F5" transform="translate(8,84)"/>
<path d="M0 0 C0.66 0.33 1.32 0.66 2 1 C0.5484451 2.67257355 -0.91144409 4.33791758 -2.375 6 C-3.18710937 6.928125 -3.99921875 7.85625 -4.8359375 8.8125 C-5.55007812 9.534375 -6.26421875 10.25625 -7 11 C-7.66 11 -8.32 11 -9 11 C-9 11.99 -9 12.98 -9 14 C-9.66 14 -10.32 14 -11 14 C-9.05580907 7.99068257 -5.23064093 3.48709396 0 0 Z " fill="#6DA7F2" transform="translate(22,24)"/>
<path d="M0 0 C0 8.25 0 16.5 0 25 C-0.33 25 -0.66 25 -1 25 C-1.33 18.4 -1.66 11.8 -2 5 C-2.99 5.33 -3.98 5.66 -5 6 C-2.84615385 0 -2.84615385 0 0 0 Z " fill="#3D89EE" transform="translate(134,71)"/>
</svg>
