<?xml version="1.0" standalone="no"?>
<!DOCTYPE svg PUBLIC "-//W3C//DTD SVG 20010904//EN"
 "http://www.w3.org/TR/2001/REC-SVG-20010904/DTD/svg10.dtd">
<svg version="1.0" xmlns="http://www.w3.org/2000/svg"
 width="143.000000pt" height="143.000000pt" viewBox="0 0 143.000000 143.000000"
 preserveAspectRatio="xMidYMid meet">

<g transform="translate(0.000000,143.000000) scale(0.100000,-0.100000)"
fill="#000000" stroke="none">
<path d="M663 1409 c-51 -10 -44 -6 -278 -145 -273 -162 -287 -180 -293 -397
-4 -113 -2 -141 11 -155 8 -9 26 -40 41 -69 14 -28 36 -59 48 -67 20 -14 24
-14 41 2 11 9 41 61 68 115 57 112 78 137 118 137 57 0 102 -59 158 -210 29
-78 49 -110 67 -110 22 0 53 75 75 179 60 276 114 361 201 316 60 -31 99 -108
154 -307 15 -51 43 -88 68 -88 4 0 50 64 104 142 l96 143 -5 52 c-7 63 -39
138 -75 176 -27 29 -388 248 -446 272 -45 18 -105 24 -153 14z"/>
<path d="M877 922 c-12 -13 -30 -79 -51 -185 -47 -230 -87 -298 -177 -301 -79
-2 -111 37 -175 217 -21 59 -42 107 -47 107 -4 0 -17 -21 -28 -47 -81 -189
-115 -233 -177 -233 -42 0 -85 25 -114 66 l-20 29 5 -63 c6 -72 41 -154 84
-194 29 -27 408 -253 452 -270 50 -18 147 -11 199 15 91 46 397 230 425 256
15 14 40 50 55 80 24 50 27 68 30 191 l3 135 -38 -62 c-53 -87 -97 -131 -138
-139 -50 -9 -84 3 -120 41 -31 33 -37 46 -99 255 -14 47 -31 93 -38 103 -13
18 -14 18 -31 -1z"/>
</g>
</svg>
