<?xml version="1.0" encoding="UTF-8"?>
<!DOCTYPE svg PUBLIC "-//W3C//DTD SVG 1.1//EN" "http://www.w3.org/Graphics/SVG/1.1/DTD/svg11.dtd">
<svg xmlns="http://www.w3.org/2000/svg" version="1.1" width="467px" height="142px" style="shape-rendering:geometricPrecision; text-rendering:geometricPrecision; image-rendering:optimizeQuality; fill-rule:evenodd; clip-rule:evenodd" xmlns:xlink="http://www.w3.org/1999/xlink">
<g><path style="opacity:1" fill="#2474e8" d="M 67.5,-0.5 C 70.5,-0.5 73.5,-0.5 76.5,-0.5C 88.5055,5.00639 100.172,11.3397 111.5,18.5C 111.821,20.0481 112.821,20.7148 114.5,20.5C 115.833,21.1667 117.167,21.8333 118.5,22.5C 118.821,24.0481 119.821,24.7148 121.5,24.5C 122.035,26.4456 123.368,27.4456 125.5,27.5C 126.5,27.8333 127.167,28.5 127.5,29.5C 127.427,31.0269 128.094,32.0269 129.5,32.5C 130.101,35.705 131.268,38.705 133,41.5C 133.499,46.4889 133.666,51.4889 133.5,56.5C 127.72,64.5505 122.053,72.7172 116.5,81C 112.255,82.2478 109.588,80.7478 108.5,76.5C 107.339,68.6867 105.005,61.3534 101.5,54.5C 99.9925,52.8185 98.9925,50.8185 98.5,48.5C 98.573,46.9731 97.9063,45.9731 96.5,45.5C 95.5,45.1667 94.8333,44.5 94.5,43.5C 94.1961,42.8501 93.8627,42.1835 93.5,41.5C 90.5719,40.5159 87.5719,40.1826 84.5,40.5C 84.5,41.5 84.5,42.5 84.5,43.5C 82.9373,44.9448 81.604,46.6115 80.5,48.5C 78.3455,50.6174 77.3455,53.284 77.5,56.5C 77.5,56.8333 77.5,57.1667 77.5,57.5C 76.8826,57.6107 76.3826,57.944 76,58.5C 75.5045,60.4727 75.3379,62.4727 75.5,64.5C 74.1201,64.9623 73.4534,65.9623 73.5,67.5C 72.6978,70.4486 72.3645,73.4486 72.5,76.5C 72.5,76.8333 72.5,77.1667 72.5,77.5C 70.7922,80.9503 69.4588,84.617 68.5,88.5C 68.4413,90.7224 67.2747,91.7224 65,91.5C 63.3009,91.6134 62.1342,90.9468 61.5,89.5C 60.2042,85.2613 58.5375,81.2613 56.5,77.5C 56.2927,74.7594 55.2927,72.4261 53.5,70.5C 52.2632,69.0351 51.2632,67.3684 50.5,65.5C 50.573,63.9731 49.9063,62.9731 48.5,62.5C 46.1961,59.0694 42.8628,57.736 38.5,58.5C 38.5,59.5 38.5,60.5 38.5,61.5C 33.8184,69.5355 29.1517,77.5355 24.5,85.5C 21.2118,85.9844 18.5452,84.9844 16.5,82.5C 16.0075,80.1815 15.0075,78.1815 13.5,76.5C 13.573,74.9731 12.9063,73.9731 11.5,73.5C 10.5987,72.7095 9.93205,71.7095 9.5,70.5C 9.33356,61.4938 9.50023,52.4938 10,43.5C 11.0755,40.1056 12.2422,36.7722 13.5,33.5C 15.2624,32.7377 16.2624,31.4044 16.5,29.5C 18.7488,28.9202 20.4154,27.5869 21.5,25.5C 23.0269,25.573 24.0269,24.9063 24.5,23.5C 24.8417,22.6618 25.5084,22.3284 26.5,22.5C 28.0269,22.573 29.0269,21.9063 29.5,20.5C 30.5137,19.3263 31.847,18.6596 33.5,18.5C 35.0269,18.573 36.0269,17.9063 36.5,16.5C 37.5137,15.3263 38.847,14.6596 40.5,14.5C 42.0269,14.573 43.0269,13.9063 43.5,12.5C 43.8417,11.6618 44.5084,11.3284 45.5,11.5C 47.0269,11.573 48.0269,10.9063 48.5,9.5C 48.8417,8.66175 49.5084,8.32842 50.5,8.5C 52.0269,8.57298 53.0269,7.90632 53.5,6.5C 54.5137,5.32627 55.847,4.6596 57.5,4.5C 59.0269,4.57298 60.0269,3.90632 60.5,2.5C 62.8546,1.34143 65.1879,0.341426 67.5,-0.5 Z"/></g>
<g><path style="opacity:0.761" fill="#a0c0f5" d="M 60.5,2.5 C 60.0269,3.90632 59.0269,4.57298 57.5,4.5C 57.9731,3.09368 58.9731,2.42702 60.5,2.5 Z"/></g>
<g><path style="opacity:0.706" fill="#abc8f6" d="M 53.5,6.5 C 53.0269,7.90632 52.0269,8.57298 50.5,8.5C 50.9731,7.09368 51.9731,6.42702 53.5,6.5 Z"/></g>
<g><path style="opacity:0.761" fill="#a1c1f5" d="M 48.5,9.5 C 48.0269,10.9063 47.0269,11.573 45.5,11.5C 45.9731,10.0937 46.9731,9.42702 48.5,9.5 Z"/></g>
<g><path style="opacity:0.761" fill="#a1c1f5" d="M 43.5,12.5 C 43.0269,13.9063 42.0269,14.573 40.5,14.5C 40.9731,13.0937 41.9731,12.427 43.5,12.5 Z"/></g>
<g><path style="opacity:0.749" fill="#a6c4f6" d="M 36.5,16.5 C 36.0269,17.9063 35.0269,18.573 33.5,18.5C 33.9731,17.0937 34.9731,16.427 36.5,16.5 Z"/></g>
<g><path style="opacity:0.945" fill="#a0b9f5" d="M 111.5,18.5 C 112.71,18.9321 113.71,19.5987 114.5,20.5C 112.821,20.7148 111.821,20.0481 111.5,18.5 Z"/></g>
<g><path style="opacity:0.741" fill="#a6c4f6" d="M 29.5,20.5 C 29.0269,21.9063 28.0269,22.573 26.5,22.5C 26.9731,21.0937 27.9731,20.427 29.5,20.5 Z"/></g>
<g><path style="opacity:0.941" fill="#a0b9f5" d="M 118.5,22.5 C 119.71,22.9321 120.71,23.5987 121.5,24.5C 119.821,24.7148 118.821,24.0481 118.5,22.5 Z"/></g>
<g><path style="opacity:0.82" fill="#95b9f4" d="M 24.5,23.5 C 24.0269,24.9063 23.0269,25.573 21.5,25.5C 21.9731,24.0937 22.9731,23.427 24.5,23.5 Z"/></g>
<g><path style="opacity:0.996" fill="#9bb7f4" d="M 121.5,24.5 C 123.23,25.0256 124.564,26.0256 125.5,27.5C 123.368,27.4456 122.035,26.4456 121.5,24.5 Z"/></g>
<g><path style="opacity:0.855" fill="#8eb3f3" d="M 21.5,25.5 C 20.4154,27.5869 18.7488,28.9202 16.5,29.5C 17.5846,27.4131 19.2512,26.0798 21.5,25.5 Z"/></g>
<g><path style="opacity:0.737" fill="#a6c5f5" d="M 16.5,29.5 C 16.2624,31.4044 15.2624,32.7377 13.5,33.5C 13.7376,31.5956 14.7376,30.2623 16.5,29.5 Z"/></g>
<g><path style="opacity:0.749" fill="#97bbf4" d="M 127.5,29.5 C 128.906,29.9731 129.573,30.9731 129.5,32.5C 128.094,32.0269 127.427,31.0269 127.5,29.5 Z"/></g>
<g><path style="opacity:1" fill="#292f3c" d="M 200.5,43.5 C 200.427,45.0269 201.094,46.0269 202.5,46.5C 206.974,56.8095 206.141,66.8095 200,76.5C 192.184,83.4912 183.017,86.1579 172.5,84.5C 172.5,94.1667 172.5,103.833 172.5,113.5C 168.167,113.5 163.833,113.5 159.5,113.5C 159.5,87.1667 159.5,60.8333 159.5,34.5C 169.55,34.1687 179.55,34.6687 189.5,36C 194.241,37.0289 197.908,39.5289 200.5,43.5 Z M 182.5,46.5 C 183.708,47.2341 185.041,47.5674 186.5,47.5C 187.167,48.8333 188.167,49.8333 189.5,50.5C 189.932,51.7095 190.599,52.7095 191.5,53.5C 194.191,68.4793 187.858,75.146 172.5,73.5C 172.5,64.5 172.5,55.5 172.5,46.5C 175.833,46.5 179.167,46.5 182.5,46.5 Z"/></g>
<g><path style="opacity:0.428" fill="#a2a5ab" d="M 244.5,35.5 C 235.167,35.5 225.833,35.5 216.5,35.5C 216.5,61.5 216.5,87.5 216.5,113.5C 215.502,87.3386 215.169,61.0053 215.5,34.5C 225.348,34.1729 235.014,34.5062 244.5,35.5 Z"/></g>
<g><path style="opacity:1" fill="#252b39" d="M 244.5,35.5 C 250.533,35.1723 255.533,37.1723 259.5,41.5C 259.427,43.0269 260.094,44.0269 261.5,44.5C 265.309,51.2552 265.475,58.2552 262,65.5C 260.588,67.6857 258.755,69.3524 256.5,70.5C 255.624,70.3691 254.957,70.7025 254.5,71.5C 255.325,72.3857 256.325,72.719 257.5,72.5C 261.046,73.3851 263.712,75.3851 265.5,78.5C 265.427,80.0269 266.094,81.0269 267.5,81.5C 270.211,89.2983 269.711,96.9649 266,104.5C 261.931,109.285 256.764,112.119 250.5,113C 239.172,113.5 227.838,113.667 216.5,113.5C 216.5,87.5 216.5,61.5 216.5,35.5C 225.833,35.5 235.167,35.5 244.5,35.5 Z M 228.5,45.5 C 235.042,44.9887 241.376,45.8221 247.5,48C 251.721,51.8221 252.554,56.3221 250,61.5C 248.564,64.4419 246.397,66.4419 243.5,67.5C 238.5,67.5 233.5,67.5 228.5,67.5C 228.5,60.1667 228.5,52.8333 228.5,45.5 Z M 245.5,78.5 C 245.833,78.5 246.167,78.5 246.5,78.5C 247.93,79.5375 249.597,80.2041 251.5,80.5C 251.833,81.5 252.5,82.1667 253.5,82.5C 253.932,83.7095 254.599,84.7095 255.5,85.5C 257.502,94.5155 254.169,100.182 245.5,102.5C 239.833,102.5 234.167,102.5 228.5,102.5C 228.5,94.5 228.5,86.5 228.5,78.5C 234.167,78.5 239.833,78.5 245.5,78.5 Z"/></g>
<g><path style="opacity:0.288" fill="#a2a5aa" d="M 295.5,113.5 C 295.5,87.5 295.5,61.5 295.5,35.5C 291.833,35.5 288.167,35.5 284.5,35.5C 284.5,61.5 284.5,87.5 284.5,113.5C 283.502,87.3386 283.169,61.0053 283.5,34.5C 287.833,34.5 292.167,34.5 296.5,34.5C 296.831,61.0053 296.498,87.3386 295.5,113.5 Z"/></g>
<g><path style="opacity:1" fill="#1d2432" d="M 295.5,113.5 C 291.833,113.5 288.167,113.5 284.5,113.5C 284.5,87.5 284.5,61.5 284.5,35.5C 288.167,35.5 291.833,35.5 295.5,35.5C 295.5,61.5 295.5,87.5 295.5,113.5 Z"/></g>
<g><path style="opacity:1" fill="#6e9def" d="M 129.5,32.5 C 134.753,38.8459 136.587,46.1792 135,54.5C 134.722,55.4158 134.222,56.0825 133.5,56.5C 133.666,51.4889 133.499,46.4889 133,41.5C 131.268,38.705 130.101,35.705 129.5,32.5 Z"/></g>
<g><path style="opacity:1" fill="#779ff0" d="M 94.5,43.5 C 92.516,42.8443 90.516,42.1776 88.5,41.5C 86.9271,41.7517 85.5938,42.4183 84.5,43.5C 84.5,42.5 84.5,41.5 84.5,40.5C 87.5719,40.1826 90.5719,40.5159 93.5,41.5C 93.8627,42.1835 94.1961,42.8501 94.5,43.5 Z"/></g>
<g><path style="opacity:0.478" fill="#a4a7ad" d="M 259.5,41.5 C 260.906,41.9731 261.573,42.9731 261.5,44.5C 260.094,44.0269 259.427,43.0269 259.5,41.5 Z"/></g>
<g><path style="opacity:0.427" fill="#a7aaaf" d="M 200.5,43.5 C 201.906,43.9731 202.573,44.9731 202.5,46.5C 201.094,46.0269 200.427,45.0269 200.5,43.5 Z"/></g>
<g><path style="opacity:0.346" fill="#b3d0f7" d="M 13.5,33.5 C 12.2422,36.7722 11.0755,40.1056 10,43.5C 9.50023,52.4938 9.33356,61.4938 9.5,70.5C 8.34235,61.3425 8.17569,52.0092 9,42.5C 9.66326,38.9647 11.1633,35.9647 13.5,33.5 Z"/></g>
<g><path style="opacity:0.051" fill="#bfd6f8" d="M 96.5,45.5 C 97.9063,45.9731 98.573,46.9731 98.5,48.5C 97.0937,48.0269 96.427,47.0269 96.5,45.5 Z"/></g>
<g><path style="opacity:0.123" fill="#e2e3e4" d="M 182.5,46.5 C 179.167,46.5 175.833,46.5 172.5,46.5C 172.5,55.5 172.5,64.5 172.5,73.5C 171.506,64.3483 171.173,55.015 171.5,45.5C 175.371,45.185 179.038,45.5184 182.5,46.5 Z"/></g>
<g><path style="opacity:0.706" fill="#b1ccf7" d="M 90.5,47.5 C 89.2058,48.2899 88.0391,49.2899 87,50.5C 85.6756,55.6808 84.1756,60.6808 82.5,65.5C 83.031,60.0411 84.1977,54.7078 86,49.5C 87.0195,48.3128 88.1861,47.3128 89.5,46.5C 90.1067,46.6236 90.44,46.9569 90.5,47.5 Z"/></g>
<g><path style="opacity:0.808" fill="#9da0a6" d="M 186.5,47.5 C 188.5,47.5 189.5,48.5 189.5,50.5C 188.167,49.8333 187.167,48.8333 186.5,47.5 Z"/></g>
<g><path style="opacity:0.894" fill="#86aff2" d="M 90.5,47.5 C 92.942,49.1209 94.2753,51.4542 94.5,54.5C 92.8009,52.4336 91.4676,50.1003 90.5,47.5 Z"/></g>
<g><path style="opacity:1" fill="#2675e8" d="M 90.5,47.5 C 91.4676,50.1003 92.8009,52.4336 94.5,54.5C 94.4095,57.1522 95.0762,59.4855 96.5,61.5C 96.4095,64.1522 97.0762,66.4855 98.5,68.5C 99.4345,69.5676 99.7678,70.901 99.5,72.5C 99.3455,75.716 100.345,78.3826 102.5,80.5C 108.602,89.8953 115.935,90.8953 124.5,83.5C 126.822,82.1979 128.155,80.1979 128.5,77.5C 129.906,77.0269 130.573,76.0269 130.5,74.5C 130.328,73.5084 130.662,72.8417 131.5,72.5C 132.79,71.9423 133.623,70.9423 134,69.5C 134.976,80.2676 134.476,90.9343 132.5,101.5C 131.056,105.544 128.722,109.044 125.5,112C 110.242,121.461 94.5751,130.128 78.5,138C 75.1832,138.498 71.8499,138.665 68.5,138.5C 66.4855,137.076 64.1522,136.41 61.5,136.5C 59.1815,136.008 57.1815,135.008 55.5,133.5C 55.0269,132.094 54.0269,131.427 52.5,131.5C 51.5084,131.672 50.8417,131.338 50.5,130.5C 50.0269,129.094 49.0269,128.427 47.5,128.5C 46.5084,128.672 45.8417,128.338 45.5,127.5C 45.0269,126.094 44.0269,125.427 42.5,125.5C 41.5084,125.672 40.8417,125.338 40.5,124.5C 40.0269,123.094 39.0269,122.427 37.5,122.5C 35.847,122.34 34.5137,121.674 33.5,120.5C 33.0269,119.094 32.0269,118.427 30.5,118.5C 28.847,118.34 27.5137,117.674 26.5,116.5C 26.0269,115.094 25.0269,114.427 23.5,114.5C 22.5084,114.672 21.8417,114.338 21.5,113.5C 20.4154,111.413 18.7488,110.08 16.5,109.5C 16.2624,107.596 15.2624,106.262 13.5,105.5C 12.2422,102.228 11.0755,98.8944 10,95.5C 9.19007,91.6425 9.35673,87.9758 10.5,84.5C 14.4503,91.1391 20.1169,93.4725 27.5,91.5C 29.8333,91.1667 31.1667,89.8333 31.5,87.5C 34.2309,84.7049 35.8975,81.3716 36.5,77.5C 38.2132,76.3646 38.8799,74.698 38.5,72.5C 40.2132,71.3646 40.8799,69.698 40.5,67.5C 41.6049,66.3995 42.9382,65.7329 44.5,65.5C 45.7683,72.0172 48.1016,78.0172 51.5,83.5C 51.1201,85.698 51.7868,87.3646 53.5,88.5C 54.6737,89.5137 55.3404,90.847 55.5,92.5C 55.5,94.5 56.5,95.5 58.5,95.5C 62.8015,96.7729 67.1348,96.7729 71.5,95.5C 73.5,95.5 74.5,94.5 74.5,92.5C 75.9063,92.0269 76.573,91.0269 76.5,89.5C 79.2003,85.7284 80.5336,81.3951 80.5,76.5C 80.6459,72.6125 81.3126,68.9458 82.5,65.5C 84.1756,60.6808 85.6756,55.6808 87,50.5C 88.0391,49.2899 89.2058,48.2899 90.5,47.5 Z"/></g>
<g><path style="opacity:0.596" fill="#a2c2f5" d="M 80.5,48.5 C 79.871,51.3973 78.871,54.064 77.5,56.5C 77.3455,53.284 78.3455,50.6174 80.5,48.5 Z"/></g>
<g><path style="opacity:0.929" fill="#8e9198" d="M 189.5,50.5 C 191.048,50.8212 191.715,51.8212 191.5,53.5C 190.599,52.7095 189.932,51.7095 189.5,50.5 Z"/></g>
<g><path style="opacity:0.757" fill="#99bdf4" d="M 94.5,54.5 C 95.9238,56.5145 96.5905,58.8478 96.5,61.5C 95.0762,59.4855 94.4095,57.1522 94.5,54.5 Z"/></g>
<g><path style="opacity:0.404" fill="#b1cdf7" d="M 101.5,54.5 C 105.005,61.3534 107.339,68.6867 108.5,76.5C 105.8,69.3955 103.467,62.0621 101.5,54.5 Z"/></g>
<g><path style="opacity:1" fill="#789ef0" d="M 48.5,62.5 C 46.4456,61.3914 44.2789,60.3914 42,59.5C 40.6974,59.9783 39.5307,60.645 38.5,61.5C 38.5,60.5 38.5,59.5 38.5,58.5C 42.8628,57.736 46.1961,59.0694 48.5,62.5 Z"/></g>
<g><path style="opacity:0.776" fill="#99bbf4" d="M 77.5,57.5 C 77.2785,60.0673 76.6118,62.4006 75.5,64.5C 75.3379,62.4727 75.5045,60.4727 76,58.5C 76.3826,57.944 76.8826,57.6107 77.5,57.5 Z"/></g>
<g><path style="opacity:0.024" fill="#caddf9" d="M 48.5,62.5 C 49.9063,62.9731 50.573,63.9731 50.5,65.5C 49.0937,65.0269 48.427,64.0269 48.5,62.5 Z"/></g>
<g><path style="opacity:0.78" fill="#8eb6f3" d="M 96.5,61.5 C 97.9238,63.5145 98.5905,65.8478 98.5,68.5C 97.0762,66.4855 96.4095,64.1522 96.5,61.5 Z"/></g>
<g><path style="opacity:1" fill="#3e4350" d="M 367.5,64.5 C 375.486,63.998 377.486,67.1647 373.5,74C 365.424,74.8047 363.424,71.638 367.5,64.5 Z"/></g>
<g><path style="opacity:0.424" fill="#c0d7f8" d="M 44.5,65.5 C 42.9382,65.7329 41.6049,66.3995 40.5,67.5C 40.9577,64.6909 42.2911,64.0242 44.5,65.5 Z"/></g>
<g><path style="opacity:0.827" fill="#8eb4f3" d="M 75.5,64.5 C 74.9915,68.7359 73.9915,72.7359 72.5,76.5C 72.3645,73.4486 72.6978,70.4486 73.5,67.5C 73.4534,65.9623 74.1201,64.9623 75.5,64.5 Z"/></g>
<g><path style="opacity:0.11" fill="#cdced1" d="M 228.5,45.5 C 228.5,52.8333 228.5,60.1667 228.5,67.5C 233.5,67.5 238.5,67.5 243.5,67.5C 238.36,68.4881 233.026,68.8214 227.5,68.5C 227.175,60.6484 227.508,52.9818 228.5,45.5 Z"/></g>
<g><path style="opacity:0.98" fill="#83adf2" d="M 44.5,65.5 C 47.5965,71.1092 49.9298,77.1092 51.5,83.5C 48.1016,78.0172 45.7683,72.0172 44.5,65.5 Z"/></g>
<g><path style="opacity:0.984" fill="#92b5f3" d="M 40.5,67.5 C 40.8799,69.698 40.2132,71.3646 38.5,72.5C 38.4021,70.4471 39.0687,68.7804 40.5,67.5 Z"/></g>
<g><path style="opacity:0.5" fill="#9ac0f4" d="M 132.5,101.5 C 134.476,90.9343 134.976,80.2676 134,69.5C 133.623,70.9423 132.79,71.9423 131.5,72.5C 131.738,70.3551 132.738,68.6885 134.5,67.5C 135.665,76.8155 135.832,86.1489 135,95.5C 134.76,97.8516 133.927,99.8516 132.5,101.5 Z"/></g>
<g><path style="opacity:0.314" fill="#b7b9be" d="M 256.5,70.5 C 256.833,71.1667 257.167,71.8333 257.5,72.5C 256.325,72.719 255.325,72.3857 254.5,71.5C 254.957,70.7025 255.624,70.3691 256.5,70.5 Z"/></g>
<g><path style="opacity:0.251" fill="#bed6f8" d="M 53.5,70.5 C 55.2927,72.4261 56.2927,74.7594 56.5,77.5C 54.7073,75.5739 53.7073,73.2406 53.5,70.5 Z"/></g>
<g><path style="opacity:0.224" fill="#c5daf8" d="M 11.5,73.5 C 12.9063,73.9731 13.573,74.9731 13.5,76.5C 12.0937,76.0269 11.427,75.0269 11.5,73.5 Z"/></g>
<g><path style="opacity:0.89" fill="#9cbdf4" d="M 38.5,72.5 C 38.8799,74.698 38.2132,76.3646 36.5,77.5C 36.4021,75.4471 37.0687,73.7804 38.5,72.5 Z"/></g>
<g><path style="opacity:0.824" fill="#86b0f2" d="M 99.5,72.5 C 100.871,74.936 101.871,77.6027 102.5,80.5C 100.345,78.3826 99.3455,75.716 99.5,72.5 Z"/></g>
<g><path style="opacity:0.322" fill="#bcd5f8" d="M 130.5,74.5 C 130.573,76.0269 129.906,77.0269 128.5,77.5C 128.427,75.9731 129.094,74.9731 130.5,74.5 Z"/></g>
<g><path style="opacity:0.22" fill="#bfd6f8" d="M 13.5,76.5 C 15.0075,78.1815 16.0075,80.1815 16.5,82.5C 14.461,81.089 13.461,79.089 13.5,76.5 Z"/></g>
<g><path style="opacity:0.443" fill="#a0c1f5" d="M 72.5,77.5 C 72.3333,81.6734 71,85.3401 68.5,88.5C 69.4588,84.617 70.7922,80.9503 72.5,77.5 Z"/></g>
<g><path style="opacity:0.293" fill="#c1c3c7" d="M 245.5,78.5 C 239.833,78.5 234.167,78.5 228.5,78.5C 228.5,86.5 228.5,94.5 228.5,102.5C 234.167,102.5 239.833,102.5 245.5,102.5C 239.69,103.49 233.69,103.823 227.5,103.5C 227.5,94.8333 227.5,86.1667 227.5,77.5C 233.69,77.1771 239.69,77.5104 245.5,78.5 Z"/></g>
<g><path style="opacity:0.914" fill="#888c93" d="M 246.5,78.5 C 248.698,78.1201 250.365,78.7868 251.5,80.5C 249.597,80.2041 247.93,79.5375 246.5,78.5 Z"/></g>
<g><path style="opacity:0.349" fill="#b2cdf7" d="M 80.5,76.5 C 80.5336,81.3951 79.2003,85.7284 76.5,89.5C 77.6953,85.0326 79.0287,80.6992 80.5,76.5 Z"/></g>
<g><path style="opacity:0.306" fill="#bad3f8" d="M 128.5,77.5 C 128.155,80.1979 126.822,82.1979 124.5,83.5C 125.34,81.1475 126.674,79.1475 128.5,77.5 Z"/></g>
<g><path style="opacity:0.597" fill="#8e9299" d="M 323.5,81.5 C 320.728,80.2329 318.061,80.2329 315.5,81.5C 314.957,81.44 314.624,81.1067 314.5,80.5C 316,80.1667 317.5,79.8333 319,79.5C 320.986,79.5687 322.486,80.2353 323.5,81.5 Z"/></g>
<g><path style="opacity:0.599" fill="#8d9097" d="M 353.5,80.5 C 355.948,79.5269 358.615,79.1936 361.5,79.5C 361.737,80.791 361.404,81.791 360.5,82.5C 358.721,80.6565 356.388,79.9898 353.5,80.5 Z"/></g>
<g><path style="opacity:1" fill="#3d424f" d="M 403.5,85.5 C 402.167,85.5 400.833,85.5 399.5,85.5C 397.143,85.3367 394.81,85.5034 392.5,86C 391.273,87.5874 391.606,88.9207 393.5,90C 397.531,91.4323 401.364,93.2657 405,95.5C 409.143,102.397 407.643,107.564 400.5,111C 396.5,111.667 392.5,111.667 388.5,111C 383.2,110.619 381.866,108.453 384.5,104.5C 385.391,103.89 386.391,103.557 387.5,103.5C 391.112,104.511 394.779,104.678 398.5,104C 398.957,103.586 399.291,103.086 399.5,102.5C 394.546,99.7819 389.713,96.7819 385,93.5C 381.617,86.1035 383.783,81.2701 391.5,79C 396.174,78.186 400.674,78.686 405,80.5C 405.599,82.5348 405.099,84.2015 403.5,85.5 Z"/></g>
<g><path style="opacity:1" fill="#323744" d="M 442.5,97.5 C 435.167,97.5 427.833,97.5 420.5,97.5C 420.263,98.791 420.596,99.791 421.5,100.5C 422.29,101.794 423.29,102.961 424.5,104C 428.152,104.499 431.818,104.665 435.5,104.5C 436.959,104.433 438.292,104.766 439.5,105.5C 441.116,107.416 440.782,108.916 438.5,110C 431.693,112.21 425.027,111.877 418.5,109C 415.404,106.971 413.738,104.138 413.5,100.5C 413.437,95.7971 413.771,91.1304 414.5,86.5C 414.5,85.8333 414.833,85.5 415.5,85.5C 417.167,84.5 418.5,83.1667 419.5,81.5C 425.275,77.7048 431.275,77.5381 437.5,81C 441.989,85.529 443.655,91.029 442.5,97.5 Z M 426.5,85.5 C 431.713,85.0867 434.38,87.42 434.5,92.5C 429.821,92.6658 425.155,92.4992 420.5,92C 421.51,88.737 423.51,86.5703 426.5,85.5 Z"/></g>
<g><path style="opacity:0.439" fill="#adcaf6" d="M 56.5,77.5 C 58.5375,81.2613 60.2042,85.2613 61.5,89.5C 58.688,86.0868 57.0213,82.0868 56.5,77.5 Z"/></g>
<g><path style="opacity:0.4" fill="#a7aaaf" d="M 265.5,78.5 C 266.906,78.9731 267.573,79.9731 267.5,81.5C 266.094,81.0269 265.427,80.0269 265.5,78.5 Z"/></g>
<g><path style="opacity:1" fill="#3a3e4b" d="M 353.5,80.5 C 356.388,79.9898 358.721,80.6565 360.5,82.5C 357.12,92.2541 352.953,101.587 348,110.5C 347.228,110.355 346.561,110.022 346,109.5C 343.807,105.114 341.64,100.78 339.5,96.5C 338.968,93.5404 338.301,93.2071 337.5,95.5C 335.18,100.14 332.847,104.807 330.5,109.5C 329.311,110.429 327.978,110.762 326.5,110.5C 323.033,100.767 319.366,91.1006 315.5,81.5C 318.061,80.2329 320.728,80.2329 323.5,81.5C 325.687,85.8954 327.354,90.5621 328.5,95.5C 329.301,97.7929 329.968,97.4596 330.5,94.5C 332.462,89.2432 334.962,84.2432 338,79.5C 341.369,84.9159 344.369,90.5826 347,96.5C 348.9,90.9463 351.066,85.613 353.5,80.5 Z"/></g>
<g><path style="opacity:0.729" fill="#60646e" d="M 373.5,110.5 C 373.5,100.5 373.5,90.5 373.5,80.5C 371.5,80.5 369.5,80.5 367.5,80.5C 367.5,90.5 367.5,100.5 367.5,110.5C 366.506,100.347 366.172,90.0135 366.5,79.5C 369.167,79.5 371.833,79.5 374.5,79.5C 374.828,90.0135 374.494,100.347 373.5,110.5 Z"/></g>
<g><path style="opacity:1" fill="#1d2432" d="M 373.5,110.5 C 371.5,110.5 369.5,110.5 367.5,110.5C 367.5,100.5 367.5,90.5 367.5,80.5C 369.5,80.5 371.5,80.5 373.5,80.5C 373.5,90.5 373.5,100.5 373.5,110.5 Z"/></g>
<g><path style="opacity:0.267" fill="#b2ccf7" d="M 36.5,77.5 C 35.8975,81.3716 34.2309,84.7049 31.5,87.5C 32.6589,83.8487 34.3256,80.5154 36.5,77.5 Z"/></g>
<g><path style="opacity:0.914" fill="#93969d" d="M 253.5,82.5 C 255.048,82.8212 255.715,83.8212 255.5,85.5C 254.599,84.7095 253.932,83.7095 253.5,82.5 Z"/></g>
<g><path style="opacity:0.753" fill="#8c8f96" d="M 419.5,81.5 C 418.5,83.1667 417.167,84.5 415.5,85.5C 415.833,83.1667 417.167,81.8333 419.5,81.5 Z"/></g>
<g><path style="opacity:0.352" fill="#bbd5f8" d="M 10.5,84.5 C 9.35673,87.9758 9.19007,91.6425 10,95.5C 11.0755,98.8944 12.2422,102.228 13.5,105.5C 9.86124,100.911 8.19457,95.5776 8.5,89.5C 8.83333,87.1667 9.16667,84.8333 9.5,82.5C 10.2975,82.9569 10.6309,83.6236 10.5,84.5 Z"/></g>
<g><path style="opacity:0.78" fill="#a0c0f5" d="M 16.5,82.5 C 18.5452,84.9844 21.2118,85.9844 24.5,85.5C 22.7116,86.6225 20.7116,86.7891 18.5,86C 17.1772,85.1841 16.5106,84.0174 16.5,82.5 Z"/></g>
<g><path style="opacity:0.694" fill="#94979e" d="M 399.5,85.5 C 400.833,85.5 402.167,85.5 403.5,85.5C 403.631,86.3764 403.298,87.0431 402.5,87.5C 401.261,87.0576 400.261,86.3909 399.5,85.5 Z"/></g>
<g><path style="opacity:0.804" fill="#97bbf4" d="M 51.5,83.5 C 52.5375,84.9303 53.2041,86.597 53.5,88.5C 51.7868,87.3646 51.1201,85.698 51.5,83.5 Z"/></g>
<g><path style="opacity:0.698" fill="#98baf4" d="M 31.5,87.5 C 31.1667,89.8333 29.8333,91.1667 27.5,91.5C 28.5,89.8333 29.8333,88.5 31.5,87.5 Z"/></g>
<g><path style="opacity:0.369" fill="#b3cff7" d="M 76.5,89.5 C 76.573,91.0269 75.9063,92.0269 74.5,92.5C 74.427,90.9731 75.0937,89.9731 76.5,89.5 Z"/></g>
<g><path style="opacity:0.694" fill="#777a83" d="M 414.5,86.5 C 413.771,91.1304 413.437,95.7971 413.5,100.5C 412.839,98.866 412.506,97.0326 412.5,95C 412.36,91.8502 413.027,89.0169 414.5,86.5 Z"/></g>
<g><path style="opacity:0.722" fill="#a5c3f5" d="M 55.5,92.5 C 56.8333,93.1667 57.8333,94.1667 58.5,95.5C 56.5,95.5 55.5,94.5 55.5,92.5 Z"/></g>
<g><path style="opacity:0.753" fill="#99bcf4" d="M 74.5,92.5 C 74.5,94.5 73.5,95.5 71.5,95.5C 72.1667,94.1667 73.1667,93.1667 74.5,92.5 Z"/></g>
<g><path style="opacity:0.008" fill="#cacccf" d="M 339.5,96.5 C 338.833,96.1667 338.167,95.8333 337.5,95.5C 338.301,93.2071 338.968,93.5404 339.5,96.5 Z"/></g>
<g><path style="opacity:0.376" fill="#bcbfc2" d="M 330.5,94.5 C 329.968,97.4596 329.301,97.7929 328.5,95.5C 329.167,95.1667 329.833,94.8333 330.5,94.5 Z"/></g>
<g><path style="opacity:0.207" fill="#d1d2d5" d="M 442.5,97.5 C 435.274,97.8486 428.274,98.8486 421.5,100.5C 420.596,99.791 420.263,98.791 420.5,97.5C 427.833,97.5 435.167,97.5 442.5,97.5 Z"/></g>
<g><path style="opacity:0.997" fill="#444855" d="M 451.5,101.5 C 454.119,101.232 456.619,101.565 459,102.5C 461.412,108.76 459.245,111.593 452.5,111C 448.862,108.254 448.528,105.087 451.5,101.5 Z"/></g>
<g><path style="opacity:0.416" fill="#bbbcc0" d="M 387.5,103.5 C 386.391,103.557 385.391,103.89 384.5,104.5C 385.053,102.448 386.053,102.115 387.5,103.5 Z"/></g>
<g><path style="opacity:0.875" fill="#91949b" d="M 439.5,105.5 C 438.292,104.766 436.959,104.433 435.5,104.5C 437.564,101.547 438.897,101.88 439.5,105.5 Z"/></g>
<g><path style="opacity:0.012" fill="#c8dbf9" d="M 13.5,105.5 C 15.2624,106.262 16.2624,107.596 16.5,109.5C 14.7376,108.738 13.7376,107.404 13.5,105.5 Z"/></g>
<g><path style="opacity:0.831" fill="#a4c2f5" d="M 16.5,109.5 C 18.7488,110.08 20.4154,111.413 21.5,113.5C 19.2512,112.92 17.5846,111.587 16.5,109.5 Z"/></g>
<g><path style="opacity:0.455" fill="#a3c3f5" d="M 23.5,114.5 C 25.0269,114.427 26.0269,115.094 26.5,116.5C 24.9731,116.573 23.9731,115.906 23.5,114.5 Z"/></g>
<g><path style="opacity:0.424" fill="#a5c4f5" d="M 30.5,118.5 C 32.0269,118.427 33.0269,119.094 33.5,120.5C 31.9731,120.573 30.9731,119.906 30.5,118.5 Z"/></g>
<g><path style="opacity:0.451" fill="#a5c4f5" d="M 37.5,122.5 C 39.0269,122.427 40.0269,123.094 40.5,124.5C 38.9731,124.573 37.9731,123.906 37.5,122.5 Z"/></g>
<g><path style="opacity:0.451" fill="#a8c6f6" d="M 42.5,125.5 C 44.0269,125.427 45.0269,126.094 45.5,127.5C 43.9731,127.573 42.9731,126.906 42.5,125.5 Z"/></g>
<g><path style="opacity:0.373" fill="#b3cdf7" d="M 47.5,128.5 C 49.0269,128.427 50.0269,129.094 50.5,130.5C 48.9731,130.573 47.9731,129.906 47.5,128.5 Z"/></g>
<g><path style="opacity:0.361" fill="#b3cdf7" d="M 52.5,131.5 C 54.0269,131.427 55.0269,132.094 55.5,133.5C 53.9731,133.573 52.9731,132.906 52.5,131.5 Z"/></g>
<g><path style="opacity:0.655" fill="#95b7f3" d="M 61.5,136.5 C 64.1522,136.41 66.4855,137.076 68.5,138.5C 65.8478,138.59 63.5145,137.924 61.5,136.5 Z"/></g>
</svg>
