<?xml version="1.0" encoding="UTF-8"?>
<!DOCTYPE svg PUBLIC "-//W3C//DTD SVG 1.1//EN" "http://www.w3.org/Graphics/SVG/1.1/DTD/svg11.dtd">
<svg xmlns="http://www.w3.org/2000/svg" version="1.1" width="467px" height="142px" style="shape-rendering:geometricPrecision; text-rendering:geometricPrecision; image-rendering:optimizeQuality; fill-rule:evenodd; clip-rule:evenodd" xmlns:xlink="http://www.w3.org/1999/xlink">
<g><path style="opacity:1" fill="#fdfdfe" d="M -0.5,-0.5 C 155.167,-0.5 310.833,-0.5 466.5,-0.5C 466.5,46.8333 466.5,94.1667 466.5,141.5C 310.833,141.5 155.167,141.5 -0.5,141.5C -0.5,94.1667 -0.5,46.8333 -0.5,-0.5 Z"/></g>
<g><path style="opacity:1" fill="#1b73e8" d="M 79.5,49.5 C 78.0762,51.5145 77.4095,53.8478 77.5,56.5C 76.0966,60.3811 75.0966,64.3811 74.5,68.5C 73.8826,68.6107 73.3826,68.944 73,69.5C 72.5045,71.4727 72.3379,73.4727 72.5,75.5C 71.718,78.7144 70.8847,82.0477 70,85.5C 68.7838,87.9681 67.1171,89.9681 65,91.5C 63.7387,91.2409 62.7387,90.5742 62,89.5C 58.9418,81.7166 55.6084,74.0499 52,66.5C 47.0869,58.1771 41.4203,57.5104 35,64.5C 32.0602,70.0459 29.3935,75.7126 27,81.5C 25.9872,83.8461 24.3206,85.5128 22,86.5C 20.605,86.2196 19.4383,85.5529 18.5,84.5C 15.9744,79.4287 12.9744,74.762 9.5,70.5C 9.27053,60.4679 9.60387,50.4679 10.5,40.5C 13.1333,32.6957 18.1333,26.8623 25.5,23C 37.9957,16.2531 50.3291,9.25309 62.5,2C 71.2276,-0.478702 79.561,0.521298 87.5,5C 99.2406,12.399 111.241,19.399 123.5,26C 133.34,33.5159 136.84,43.3493 134,55.5C 127.914,63.0877 122.414,71.0877 117.5,79.5C 114.658,82.2833 112.158,81.9499 110,78.5C 107.118,67.4047 103.118,56.738 98,46.5C 90.4471,39.0788 84.2804,40.0788 79.5,49.5 Z"/></g>
<g><path style="opacity:1" fill="#202634" d="M 159.5,35.5 C 168.506,35.3336 177.506,35.5002 186.5,36C 201.41,40.3055 207.243,50.1388 204,65.5C 202.786,73.7115 198.286,79.2115 190.5,82C 184.322,84.0011 177.988,84.8344 171.5,84.5C 171.5,94.1667 171.5,103.833 171.5,113.5C 167.5,113.5 163.5,113.5 159.5,113.5C 159.5,87.5 159.5,61.5 159.5,35.5 Z"/></g>
<g><path style="opacity:1" fill="#202533" d="M 216.5,35.5 C 226.506,35.3335 236.506,35.5002 246.5,36C 260.435,38.9503 265.935,47.4503 263,61.5C 261.206,65.4474 258.706,68.7807 255.5,71.5C 266.831,76.4994 270.998,85.1661 268,97.5C 264.673,107.101 257.84,112.268 247.5,113C 237.172,113.5 226.839,113.666 216.5,113.5C 216.5,87.5 216.5,61.5 216.5,35.5 Z"/></g>
<g><path style="opacity:1" fill="#1d2432" d="M 284.5,35.5 C 288.167,35.5 291.833,35.5 295.5,35.5C 295.5,61.5 295.5,87.5 295.5,113.5C 291.833,113.5 288.167,113.5 284.5,113.5C 284.5,87.5 284.5,61.5 284.5,35.5 Z"/></g>
<g><path style="opacity:1" fill="#757982" d="M 284.5,35.5 C 288.298,34.5166 292.298,34.1832 296.5,34.5C 296.831,61.0053 296.498,87.3386 295.5,113.5C 295.5,87.5 295.5,61.5 295.5,35.5C 291.833,35.5 288.167,35.5 284.5,35.5 Z"/></g>
<g><path style="opacity:1" fill="#fdfdfd" d="M 228.5,45.5 C 233.844,45.334 239.177,45.5006 244.5,46C 251.183,48.626 253.35,53.4594 251,60.5C 249.917,64.4183 247.417,66.7517 243.5,67.5C 238.5,67.5 233.5,67.5 228.5,67.5C 228.5,60.1667 228.5,52.8333 228.5,45.5 Z"/></g>
<g><path style="opacity:1" fill="#b1cff7" d="M 10.5,40.5 C 9.60387,50.4679 9.27053,60.4679 9.5,70.5C 8.34235,61.3425 8.17569,52.0092 9,42.5C 9.27842,41.5842 9.77842,40.9175 10.5,40.5 Z"/></g>
<g><path style="opacity:1" fill="#fafbfb" d="M 171.5,45.5 C 187.229,43.3974 194.063,50.0641 192,65.5C 190.75,68.1707 188.917,70.3374 186.5,72C 181.628,73.3885 176.628,73.8885 171.5,73.5C 171.5,64.1667 171.5,54.8333 171.5,45.5 Z"/></g>
<g><path style="opacity:1" fill="#1d73e8" d="M 133.5,69.5 C 134.493,77.6499 134.826,85.9832 134.5,94.5C 132.807,102.709 128.473,109.209 121.5,114C 108.833,121.333 96.1667,128.667 83.5,136C 74.1711,139.767 65.1711,139.1 56.5,134C 44.3319,126.415 31.9985,119.082 19.5,112C 11.7555,104.434 8.58879,95.2669 10,84.5C 16.269,94.9937 23.6024,95.9937 32,87.5C 35.865,80.3842 39.0317,73.0509 41.5,65.5C 42.8221,65.33 43.9887,65.6634 45,66.5C 48.2846,75.6945 51.9513,84.6945 56,93.5C 65.5824,100.275 72.9157,98.2747 78,87.5C 80.4327,79.3109 82.266,70.9775 83.5,62.5C 84.4067,60.3432 85.0733,58.0098 85.5,55.5C 85.6234,52.626 86.6234,50.126 88.5,48C 90.3867,47.8374 91.8867,48.6707 93,50.5C 96.2971,60.0892 99.2971,69.7558 102,79.5C 108.452,91.6111 116.452,92.6111 126,82.5C 128.512,78.1392 131.012,73.8059 133.5,69.5 Z"/></g>
<g><path style="opacity:1" fill="#a7c6f5" d="M 79.5,49.5 C 79.5905,52.1522 78.9238,54.4855 77.5,56.5C 77.4095,53.8478 78.0762,51.5145 79.5,49.5 Z"/></g>
<g><path style="opacity:1" fill="#abc9f6" d="M 85.5,55.5 C 85.0733,58.0098 84.4067,60.3432 83.5,62.5C 83.3379,60.4727 83.5045,58.4727 84,56.5C 84.3826,55.944 84.8826,55.6107 85.5,55.5 Z"/></g>
<g><path style="opacity:1" fill="#2f3441" d="M 368.5,64.5 C 375.821,65.3193 377.154,68.486 372.5,74C 365.075,73.4845 363.742,70.3178 368.5,64.5 Z"/></g>
<g><path style="opacity:1" fill="#cdced1" d="M 228.5,45.5 C 228.5,52.8333 228.5,60.1667 228.5,67.5C 233.5,67.5 238.5,67.5 243.5,67.5C 238.36,68.4881 233.026,68.8214 227.5,68.5C 227.175,60.6484 227.508,52.9818 228.5,45.5 Z"/></g>
<g><path style="opacity:1" fill="#75a6f0" d="M 74.5,68.5 C 74.0733,71.0098 73.4067,73.3432 72.5,75.5C 72.3379,73.4727 72.5045,71.4727 73,69.5C 73.3826,68.944 73.8826,68.6107 74.5,68.5 Z"/></g>
<g><path style="opacity:1" fill="#92bcf3" d="M 133.5,69.5 C 133.56,68.9569 133.893,68.6236 134.5,68.5C 135.821,77.3245 135.821,85.9912 134.5,94.5C 134.826,85.9832 134.493,77.6499 133.5,69.5 Z"/></g>
<g><path style="opacity:1" fill="#b5b7bb" d="M 245.5,78.5 C 239.833,78.5 234.167,78.5 228.5,78.5C 228.5,86.8333 228.5,95.1667 228.5,103.5C 227.507,95.0161 227.174,86.3494 227.5,77.5C 233.69,77.1771 239.69,77.5104 245.5,78.5 Z"/></g>
<g><path style="opacity:1" fill="#fdfdfd" d="M 245.5,78.5 C 256.726,81.3185 259.559,87.9852 254,98.5C 251.806,101.181 248.973,102.681 245.5,103C 239.843,103.499 234.176,103.666 228.5,103.5C 228.5,95.1667 228.5,86.8333 228.5,78.5C 234.167,78.5 239.833,78.5 245.5,78.5 Z"/></g>
<g><path style="opacity:1" fill="#868a91" d="M 353.5,80.5 C 356.024,79.1997 358.691,79.1997 361.5,80.5C 361.376,81.1067 361.043,81.44 360.5,81.5C 358.393,80.5318 356.059,80.1984 353.5,80.5 Z"/></g>
<g><path style="opacity:1" fill="#262b39" d="M 389.5,79.5 C 394.547,79.3375 399.547,79.6708 404.5,80.5C 404.435,82.6957 403.768,84.6957 402.5,86.5C 399.081,84.5643 395.581,84.231 392,85.5C 391.333,86.8333 391.333,88.1667 392,89.5C 396.06,91.8546 400.227,94.0213 404.5,96C 408.686,106.098 405.186,111.265 394,111.5C 391.453,111.238 388.953,110.738 386.5,110C 382.831,108.07 382.831,105.903 386.5,103.5C 390.299,105.422 394.299,105.922 398.5,105C 399.833,103.333 399.833,101.667 398.5,100C 392.204,98.9434 387.371,95.7767 384,90.5C 383.333,88.8333 383.333,87.1667 384,85.5C 385.36,82.9774 387.193,80.9774 389.5,79.5 Z"/></g>
<g><path style="opacity:1" fill="#262c3a" d="M 422.5,79.5 C 436.479,77.4825 443.146,83.4825 442.5,97.5C 435.167,97.5 427.833,97.5 420.5,97.5C 421.042,103.204 424.208,105.871 430,105.5C 432.713,105.589 435.213,104.922 437.5,103.5C 441.829,107.738 440.829,110.238 434.5,111C 419.159,112.658 411.993,105.825 413,90.5C 414.627,85.3818 417.793,81.7151 422.5,79.5 Z"/></g>
<g><path style="opacity:1" fill="#252a38" d="M 353.5,80.5 C 356.059,80.1984 358.393,80.5318 360.5,81.5C 356.439,91.2894 352.105,100.956 347.5,110.5C 344.333,104.833 341.167,99.1667 338,93.5C 335.034,99.2943 331.867,104.961 328.5,110.5C 323.581,100.409 319.248,90.0752 315.5,79.5C 318.119,79.2317 320.619,79.565 323,80.5C 324.876,85.9633 327.043,91.2967 329.5,96.5C 332.603,91.2936 335.436,85.9603 338,80.5C 341.255,86.0084 344.255,91.675 347,97.5C 349.077,91.7656 351.243,86.099 353.5,80.5 Z"/></g>
<g><path style="opacity:1" fill="#60646e" d="M 373.5,110.5 C 373.5,100.5 373.5,90.5 373.5,80.5C 371.5,80.5 369.5,80.5 367.5,80.5C 367.5,90.5 367.5,100.5 367.5,110.5C 366.506,100.347 366.172,90.0135 366.5,79.5C 369.167,79.5 371.833,79.5 374.5,79.5C 374.828,90.0135 374.494,100.347 373.5,110.5 Z"/></g>
<g><path style="opacity:1" fill="#1d2432" d="M 373.5,110.5 C 371.5,110.5 369.5,110.5 367.5,110.5C 367.5,100.5 367.5,90.5 367.5,80.5C 369.5,80.5 371.5,80.5 373.5,80.5C 373.5,90.5 373.5,100.5 373.5,110.5 Z"/></g>
<g><path style="opacity:1" fill="#f7f7f8" d="M 424.5,85.5 C 431.086,83.7152 434.753,86.0485 435.5,92.5C 430.5,92.5 425.5,92.5 420.5,92.5C 420.571,89.3477 421.905,87.0144 424.5,85.5 Z"/></g>
<g><path style="opacity:1" fill="#2c313f" d="M 452.5,101.5 C 458,100.831 460.167,103.165 459,108.5C 456.763,112.02 454.096,112.353 451,109.5C 450.109,106.502 450.609,103.836 452.5,101.5 Z"/></g>
</svg>
