<?xml version="1.0" encoding="UTF-8"?>
<svg xmlns="http://www.w3.org/2000/svg" xmlns:xlink="http://www.w3.org/1999/xlink" width="70px" height="57px" viewBox="0 0 69 57" version="1.1">
<g id="surface1">
<path style=" stroke:none;fill-rule:evenodd;fill:rgb(49.411765%,70.588235%,92.54902%);fill-opacity:1;" d="M 22.605469 1.609375 C 23.753906 1.632812 25.660156 1.632812 26.851562 1.609375 C 28.039062 1.589844 27.101562 1.574219 24.769531 1.574219 C 22.433594 1.574219 21.460938 1.589844 22.605469 1.609375 M 17.148438 3.191406 L 16.78125 3.601562 L 17.1875 3.230469 C 17.410156 3.027344 17.59375 2.839844 17.59375 2.820312 C 17.59375 2.722656 17.488281 2.808594 17.148438 3.191406 M 40.988281 5.546875 C 40.851562 5.609375 40.625 5.785156 40.488281 5.9375 C 40.246094 6.214844 40.238281 6.425781 40.203125 15.210938 C 40.183594 20.15625 40.199219 24.382812 40.238281 24.597656 C 40.34375 25.207031 40.859375 25.65625 41.449219 25.65625 C 42.070312 25.65625 42.371094 25.492188 42.609375 25.027344 C 42.773438 24.707031 42.796875 23.421875 42.796875 15.492188 L 42.796875 6.324219 L 42.453125 5.9375 C 42.085938 5.527344 41.433594 5.351562 40.988281 5.546875 M 18.402344 17.316406 C 18.402344 23.605469 18.417969 26.179688 18.433594 23.035156 C 18.453125 19.886719 18.453125 14.742188 18.433594 11.597656 C 18.417969 8.449219 18.402344 11.023438 18.402344 17.316406 M 15.78125 17.441406 C 15.78125 23.453125 15.796875 25.914062 15.816406 22.90625 C 15.832031 19.902344 15.832031 14.980469 15.816406 11.976562 C 15.796875 8.96875 15.78125 11.429688 15.78125 17.441406 M 34.800781 9.34375 L 34.4375 9.710938 L 34.4375 24.917969 L 34.800781 25.285156 C 35.316406 25.808594 36.054688 25.808594 36.570312 25.285156 L 36.933594 24.917969 L 36.933594 9.710938 L 36.570312 9.34375 C 36.054688 8.824219 35.316406 8.824219 34.800781 9.34375 M 28.996094 14.332031 L 28.574219 14.761719 L 28.574219 19.710938 C 28.574219 23.875 28.601562 24.714844 28.761719 25.027344 C 29.296875 26.070312 30.917969 25.796875 31.128906 24.628906 C 31.171875 24.394531 31.191406 22.050781 31.167969 19.421875 L 31.132812 14.640625 L 30.722656 14.269531 C 30.140625 13.742188 29.558594 13.765625 28.996094 14.332031 M 48.757812 18.035156 C 48.914062 18.066406 49.136719 18.066406 49.257812 18.035156 C 49.375 18.003906 49.25 17.976562 48.972656 17.980469 C 48.699219 17.980469 48.601562 18.007812 48.757812 18.035156 M 50.378906 18.164062 C 50.53125 18.191406 50.785156 18.191406 50.9375 18.164062 C 51.09375 18.132812 50.96875 18.109375 50.660156 18.109375 C 50.347656 18.109375 50.222656 18.132812 50.378906 18.164062 M 51.9375 18.289062 C 52.128906 18.320312 52.410156 18.320312 52.5625 18.289062 C 52.714844 18.257812 52.5625 18.234375 52.21875 18.234375 C 51.875 18.238281 51.75 18.261719 51.9375 18.289062 M 53.496094 18.414062 C 53.652344 18.445312 53.902344 18.445312 54.058594 18.414062 C 54.210938 18.386719 54.085938 18.359375 53.777344 18.359375 C 53.46875 18.359375 53.34375 18.386719 53.496094 18.414062 M 23.386719 18.816406 C 22.75 19.210938 22.691406 19.53125 22.734375 22.363281 L 22.769531 24.917969 L 23.179688 25.289062 C 23.746094 25.800781 24.457031 25.800781 24.964844 25.285156 L 25.328125 24.917969 L 25.328125 19.4375 L 24.90625 19.007812 C 24.414062 18.511719 23.96875 18.457031 23.386719 18.816406 M 47.507812 20.691406 C 47.664062 20.71875 47.890625 20.71875 48.007812 20.6875 C 48.128906 20.65625 48 20.632812 47.726562 20.632812 C 47.453125 20.632812 47.355469 20.660156 47.507812 20.691406 M 49.003906 20.816406 C 49.160156 20.847656 49.410156 20.847656 49.566406 20.816406 C 49.722656 20.785156 49.59375 20.761719 49.285156 20.761719 C 48.976562 20.761719 48.851562 20.785156 49.003906 20.816406 M 50.503906 20.941406 C 50.65625 20.972656 50.910156 20.972656 51.0625 20.941406 C 51.21875 20.914062 51.09375 20.886719 50.78125 20.886719 C 50.472656 20.886719 50.347656 20.914062 50.503906 20.941406 M 51.523438 21.453125 L 51.09375 21.929688 L 51.5625 21.492188 C 51.820312 21.253906 52.03125 21.039062 52.03125 21.019531 C 52.03125 20.921875 51.925781 21.011719 51.523438 21.453125 M 48.160156 24.738281 L 46.476562 26.476562 L 48.195312 24.773438 C 49.136719 23.835938 49.910156 23.054688 49.910156 23.035156 C 49.910156 22.945312 49.722656 23.125 48.160156 24.738281 M 50.96875 25.53125 C 50.148438 26.363281 49.503906 27.046875 49.539062 27.046875 C 49.574219 27.046875 50.273438 26.363281 51.09375 25.53125 C 51.917969 24.695312 52.558594 24.011719 52.527344 24.011719 C 52.492188 24.011719 51.792969 24.695312 50.96875 25.53125 M 43.292969 29.542969 L 41.863281 31.027344 L 43.328125 29.578125 C 44.132812 28.777344 44.792969 28.109375 44.792969 28.089844 C 44.792969 28 44.625 28.164062 43.292969 29.542969 M 46.664062 29.796875 L 45.355469 31.152344 L 46.695312 29.828125 C 47.433594 29.101562 48.039062 28.488281 48.039062 28.46875 C 48.039062 28.378906 47.878906 28.535156 46.664062 29.796875 M 25.007812 30.679688 C 28.230469 30.707031 29.414062 30.753906 29.5625 30.871094 C 29.734375 31.007812 29.738281 31.003906 29.585938 30.804688 C 29.429688 30.601562 29.078125 30.585938 25.03125 30.617188 L 20.648438 30.644531 L 25.007812 30.679688 M 17.21875 31.660156 C 17.453125 31.902344 17.671875 32.101562 17.703125 32.101562 C 17.738281 32.101562 17.578125 31.902344 17.34375 31.660156 C 17.109375 31.417969 16.890625 31.21875 16.859375 31.21875 C 16.824219 31.21875 16.984375 31.417969 17.21875 31.660156 M 38.304688 34.472656 L 36.621094 36.210938 L 38.335938 34.503906 C 39.929688 32.921875 40.109375 32.734375 40.019531 32.734375 C 40 32.734375 39.230469 33.515625 38.304688 34.472656 M 42.171875 34.21875 L 40.863281 35.578125 L 42.203125 34.253906 C 43.449219 33.023438 43.601562 32.859375 43.511719 32.859375 C 43.496094 32.859375 42.890625 33.472656 42.171875 34.21875 M 21.523438 33.203125 C 24.960938 33.292969 28.171875 33.292969 28.117188 33.207031 C 28.085938 33.15625 26.28125 33.125 24.105469 33.140625 C 21.929688 33.15625 20.769531 33.183594 21.523438 33.203125 M 34.914062 37.730469 C 34.589844 38.039062 34.367188 38.292969 34.417969 38.292969 C 34.46875 38.292969 34.757812 38.039062 35.0625 37.726562 C 35.773438 36.992188 35.671875 36.996094 34.914062 37.730469 M 37.429688 38.894531 L 35.996094 40.378906 L 37.464844 38.929688 C 38.824219 37.582031 38.984375 37.410156 38.894531 37.410156 C 38.878906 37.410156 38.21875 38.078125 37.429688 38.894531 M 34.03125 41.039062 C 34.1875 41.066406 34.4375 41.066406 34.59375 41.039062 C 34.75 41.007812 34.621094 40.984375 34.3125 40.984375 C 34.003906 40.984375 33.878906 41.007812 34.03125 41.039062 M 50.496094 42.59375 C 49.523438 42.765625 48.8125 43.316406 48.335938 44.261719 C 47.921875 45.085938 47.917969 46.472656 48.324219 47.203125 C 48.691406 47.859375 49.644531 48.578125 50.683594 48.984375 C 51.824219 49.425781 52.15625 49.707031 52.15625 50.238281 C 52.15625 50.550781 52.066406 50.734375 51.8125 50.9375 C 51.324219 51.328125 50.027344 51.242188 48.9375 50.746094 C 48.507812 50.550781 48.136719 50.414062 48.117188 50.441406 C 48.09375 50.46875 48.015625 50.972656 47.945312 51.566406 C 47.796875 52.832031 47.796875 52.828125 49.035156 53.222656 C 50.167969 53.585938 51.769531 53.597656 52.53125 53.253906 C 53.769531 52.683594 54.390625 51.808594 54.496094 50.46875 C 54.617188 48.945312 53.730469 47.824219 51.769531 47.015625 C 50.34375 46.425781 49.921875 45.726562 50.589844 45.050781 C 50.964844 44.671875 51.796875 44.632812 52.765625 44.949219 C 53.117188 45.066406 53.429688 45.136719 53.457031 45.109375 C 53.542969 45.015625 53.78125 43.078125 53.714844 42.972656 C 53.539062 42.683594 51.398438 42.429688 50.496094 42.59375 M 9.015625 42.6875 C 9.683594 42.707031 10.777344 42.707031 11.449219 42.6875 C 12.117188 42.664062 11.570312 42.644531 10.230469 42.644531 C 8.894531 42.644531 8.347656 42.664062 9.015625 42.6875 M 16.652344 42.75 C 16.617188 42.835938 16.605469 45.269531 16.625 48.152344 L 16.65625 53.398438 L 21.648438 53.40625 L 16.71875 53.328125 L 16.71875 42.722656 L 19.183594 42.6875 L 21.648438 42.648438 L 19.179688 42.621094 C 17.296875 42.597656 16.699219 42.628906 16.652344 42.75 M 25.886719 42.75 C 25.851562 42.835938 25.839844 45.269531 25.859375 48.152344 L 25.890625 53.398438 L 26.953125 53.40625 L 28.011719 53.414062 L 26.980469 53.367188 L 25.953125 53.324219 L 25.953125 42.726562 L 27.042969 42.6875 L 28.136719 42.644531 L 27.039062 42.617188 C 26.257812 42.597656 25.929688 42.636719 25.886719 42.75 M 29.285156 42.6875 C 29.257812 42.738281 30.199219 45.226562 31.378906 48.214844 C 33.328125 53.15625 33.550781 53.652344 33.824219 53.6875 C 34.105469 53.71875 34.1875 53.566406 35 51.507812 C 35.480469 50.289062 35.902344 49.292969 35.941406 49.289062 C 35.976562 49.289062 36.40625 50.269531 36.890625 51.46875 C 37.664062 53.375 37.8125 53.65625 38.070312 53.683594 C 38.351562 53.714844 38.480469 53.425781 40.453125 48.375 C 41.597656 45.4375 42.550781 42.949219 42.574219 42.84375 C 42.605469 42.6875 42.40625 42.65625 41.363281 42.65625 L 40.121094 42.65625 L 39.128906 45.214844 C 38.585938 46.621094 38.109375 47.773438 38.066406 47.773438 C 38.027344 47.773438 37.578125 46.675781 37.074219 45.339844 C 36.566406 44.003906 36.101562 42.851562 36.039062 42.78125 C 35.871094 42.601562 35.796875 42.757812 34.800781 45.402344 C 34.308594 46.707031 33.871094 47.773438 33.828125 47.773438 C 33.785156 47.773438 33.335938 46.679688 32.824219 45.339844 C 32.316406 44.003906 31.84375 42.835938 31.78125 42.75 C 31.648438 42.574219 29.375 42.519531 29.285156 42.6875 M 43.855469 42.746094 C 43.820312 42.835938 43.808594 45.269531 43.824219 48.152344 L 43.859375 53.398438 L 44.953125 53.433594 L 46.042969 53.472656 L 46.011719 48.0625 L 45.980469 42.65625 L 44.949219 42.617188 C 44.191406 42.589844 43.898438 42.625 43.855469 42.746094 M 56.148438 48.027344 L 56.148438 53.464844 L 58.925781 53.433594 L 61.699219 53.398438 L 61.738281 52.292969 L 61.773438 51.1875 L 58.394531 51.1875 L 58.394531 49.164062 L 61.140625 49.164062 L 61.140625 46.890625 L 58.394531 46.890625 L 58.394531 44.875 L 61.574219 44.804688 L 61.613281 43.699219 L 61.648438 42.59375 L 56.148438 42.59375 L 56.148438 48.027344 M 9.902344 45.941406 C 9.902344 46.566406 9.921875 46.839844 9.949219 46.546875 C 9.972656 46.253906 9.976562 45.738281 9.949219 45.40625 C 9.921875 45.074219 9.902344 45.316406 9.902344 45.941406 M 18.882812 45.878906 C 18.882812 46.46875 18.90625 46.710938 18.933594 46.414062 C 18.957031 46.121094 18.957031 45.636719 18.933594 45.339844 C 18.90625 45.046875 18.882812 45.289062 18.882812 45.878906 M 23.230469 47.6875 L 22.957031 47.980469 L 23.769531 48.722656 L 23.429688 48.335938 L 23.085938 47.953125 L 23.363281 47.675781 C 23.511719 47.519531 23.605469 47.394531 23.570312 47.394531 C 23.53125 47.394531 23.378906 47.527344 23.230469 47.6875 M 18.886719 50.113281 C 18.886719 50.738281 18.90625 51.007812 18.933594 50.714844 C 18.957031 50.421875 18.957031 49.910156 18.933594 49.578125 C 18.90625 49.246094 18.886719 49.488281 18.886719 50.113281 M 9.90625 51.25 C 9.90625 52.363281 9.925781 52.800781 9.949219 52.222656 C 9.972656 51.644531 9.972656 50.734375 9.949219 50.199219 C 9.925781 49.664062 9.90625 50.136719 9.90625 51.25 M 8.269531 53.429688 C 8.597656 53.453125 9.101562 53.453125 9.394531 53.425781 C 9.683594 53.402344 9.414062 53.378906 8.796875 53.378906 C 8.179688 53.378906 7.941406 53.402344 8.269531 53.429688 "/>
<path style=" stroke:none;fill-rule:evenodd;fill:rgb(95.686275%,40%,21.176471%);fill-opacity:1;" d="M 19.433594 1.832031 C 18.351562 2.132812 17.117188 3.117188 16.492188 4.179688 C 15.84375 5.289062 15.835938 5.417969 15.875 17.792969 L 15.910156 29.257812 L 16.203125 29.992188 C 16.613281 31.027344 17.730469 32.210938 18.746094 32.683594 L 19.527344 33.050781 L 23.785156 33.085938 L 28.042969 33.125 L 30.132812 36.308594 C 32.484375 39.890625 32.929688 40.492188 33.441406 40.761719 C 33.972656 41.039062 34.8125 40.996094 35.414062 40.664062 C 35.699219 40.507812 39.570312 36.789062 44.074219 32.351562 C 48.550781 27.933594 52.644531 23.910156 53.171875 23.40625 L 54.121094 22.492188 L 54.503906 24.546875 C 54.714844 25.679688 54.957031 27.003906 55.039062 27.488281 C 55.222656 28.585938 55.722656 29.195312 56.4375 29.195312 C 57.003906 29.195312 57.609375 28.691406 57.707031 28.144531 C 57.769531 27.792969 57.429688 25.710938 56.453125 20.441406 C 56.199219 19.082031 55.867188 18.640625 55.015625 18.53125 C 54.710938 18.492188 52.75 18.324219 50.660156 18.160156 C 46.484375 17.832031 46.277344 17.847656 45.839844 18.519531 C 45.5 19.042969 45.574219 19.679688 46.019531 20.132812 L 46.398438 20.515625 L 49.171875 20.746094 C 50.695312 20.871094 51.957031 20.992188 51.972656 21.007812 C 52 21.042969 40.140625 32.769531 36.363281 36.445312 C 35.296875 37.480469 34.414062 38.304688 34.394531 38.28125 C 34.378906 38.253906 33.257812 36.539062 31.902344 34.472656 L 29.441406 30.710938 L 25.207031 30.710938 C 20.5 30.710938 19.933594 30.648438 19.25 30.035156 C 18.289062 29.183594 18.347656 29.980469 18.34375 17.339844 C 18.34375 6.496094 18.351562 6.039062 18.578125 5.585938 C 18.855469 5.042969 19.238281 4.664062 19.800781 4.375 C 20.144531 4.199219 20.785156 4.171875 24.417969 4.167969 C 26.738281 4.167969 28.851562 4.113281 29.117188 4.050781 C 30.457031 3.738281 30.597656 2.429688 29.359375 1.785156 C 28.949219 1.570312 20.222656 1.609375 19.433594 1.832031 M 7.734375 48.027344 L 7.734375 53.335938 L 9.917969 53.335938 L 9.882812 51.3125 L 9.84375 49.289062 L 11.191406 49.285156 C 13.222656 49.277344 14.046875 48.867188 14.679688 47.558594 C 14.964844 46.960938 15.027344 46.675781 15.019531 45.945312 C 15.007812 44.90625 14.796875 44.332031 14.167969 43.628906 C 13.457031 42.828125 12.96875 42.71875 10.148438 42.71875 L 7.734375 42.71875 L 7.734375 48.027344 M 16.71875 48.027344 L 16.71875 53.335938 L 19.15625 53.335938 C 21.757812 53.335938 22.085938 53.273438 22.890625 52.652344 C 23.105469 52.488281 23.441406 52.046875 23.640625 51.675781 C 23.941406 51.121094 24.007812 50.847656 24.003906 50.175781 C 24.003906 49.28125 23.871094 48.929688 23.316406 48.332031 L 22.953125 47.945312 L 23.21875 47.703125 C 23.710938 47.25 23.882812 46.75 23.882812 45.75 C 23.882812 44.640625 23.601562 43.972656 22.894531 43.378906 C 22.199219 42.800781 21.722656 42.71875 19.105469 42.71875 L 16.71875 42.71875 L 16.71875 48.027344 M 25.953125 48.027344 L 25.953125 53.335938 L 28.074219 53.335938 L 28.074219 42.71875 L 25.953125 42.71875 L 25.953125 48.027344 M 9.882812 45.972656 L 9.917969 47.078125 L 10.976562 47.117188 C 12.203125 47.160156 12.535156 47.03125 12.730469 46.441406 C 12.902344 45.910156 12.777344 45.429688 12.382812 45.117188 C 12.125 44.910156 11.878906 44.867188 10.957031 44.867188 L 9.847656 44.867188 L 9.882812 45.972656 M 18.839844 45.878906 L 18.839844 46.890625 L 19.949219 46.890625 C 21.238281 46.890625 21.550781 46.726562 21.667969 45.980469 C 21.726562 45.59375 21.6875 45.464844 21.417969 45.191406 C 21.121094 44.890625 21.015625 44.867188 19.96875 44.867188 L 18.839844 44.867188 L 18.839844 45.878906 M 18.839844 50.101562 L 18.839844 51.1875 L 19.945312 51.1875 C 20.878906 51.1875 21.105469 51.144531 21.382812 50.925781 C 21.789062 50.597656 21.835938 49.851562 21.472656 49.398438 C 21.257812 49.128906 21.117188 49.097656 20.039062 49.058594 L 18.839844 49.011719 L 18.839844 50.101562 "/>
</g>
</svg>
