<?xml version="1.0" encoding="UTF-8"?>
<svg xmlns="http://www.w3.org/2000/svg" xmlns:xlink="http://www.w3.org/1999/xlink" width="123px" height="39px" viewBox="0 0 122 39" version="1.1">
<defs>
<filter id="alpha" filterUnits="objectBoundingBox" x="0%" y="0%" width="100%" height="100%">
  <feColorMatrix type="matrix" in="SourceGraphic" values="0 0 0 0 1 0 0 0 0 1 0 0 0 0 1 0 0 0 1 0"/>
</filter>
<mask id="mask0">
  <g filter="url(#alpha)">
<rect x="0" y="0" width="122" height="39" style="fill:rgb(0%,0%,0%);fill-opacity:0.345098;stroke:none;"/>
  </g>
</mask>
<clipPath id="clip1">
  <rect x="0" y="0" width="122" height="39"/>
</clipPath>
<g id="surface5" clip-path="url(#clip1)">
<path style=" stroke:none;fill-rule:evenodd;fill:rgb(82.352941%,78.039216%,73.333333%);fill-opacity:1;" d="M 32.984375 8.742188 C 32.921875 8.742188 32.859375 8.742188 32.792969 8.742188 C 31.582031 8.742188 30.371094 8.742188 29.160156 8.742188 C 29.160156 15.914062 29.160156 23.085938 29.160156 30.257812 C 30.371094 30.257812 31.582031 30.257812 32.792969 30.257812 C 32.859375 30.257812 32.921875 30.257812 32.984375 30.257812 C 31.683594 30.449219 30.34375 30.511719 28.96875 30.449219 C 28.96875 23.148438 28.96875 15.851562 28.96875 8.550781 C 30.34375 8.488281 31.683594 8.550781 32.984375 8.742188 Z M 32.984375 8.742188 "/>
</g>
<mask id="mask1">
  <g filter="url(#alpha)">
<rect x="0" y="0" width="122" height="39" style="fill:rgb(0%,0%,0%);fill-opacity:0.819608;stroke:none;"/>
  </g>
</mask>
<clipPath id="clip2">
  <rect x="0" y="0" width="122" height="39"/>
</clipPath>
<g id="surface8" clip-path="url(#clip2)">
<path style=" stroke:none;fill-rule:evenodd;fill:rgb(89.019608%,77.254902%,50.196078%);fill-opacity:1;" d="M 30.117188 9.703125 C 30.117188 9.765625 30.117188 9.828125 30.117188 9.894531 C 30.371094 16.292969 30.371094 22.695312 30.117188 29.105469 C 30.714844 29.292969 31.351562 29.359375 32.03125 29.296875 C 31.367188 29.488281 30.667969 29.550781 29.925781 29.488281 C 29.863281 22.859375 29.925781 16.265625 30.117188 9.703125 Z M 30.117188 9.703125 "/>
</g>
<mask id="mask2">
  <g filter="url(#alpha)">
<rect x="0" y="0" width="122" height="39" style="fill:rgb(0%,0%,0%);fill-opacity:0.415686;stroke:none;"/>
  </g>
</mask>
<clipPath id="clip3">
  <rect x="0" y="0" width="122" height="39"/>
</clipPath>
<g id="surface11" clip-path="url(#clip3)">
<path style=" stroke:none;fill-rule:evenodd;fill:rgb(85.098039%,80.392157%,73.333333%);fill-opacity:1;" d="M 67.023438 12.007812 C 68.070312 11.816406 69.152344 11.753906 70.273438 11.816406 C 70.335938 12.75 70.273438 13.644531 70.082031 14.503906 C 70.082031 13.671875 70.082031 12.839844 70.082031 12.007812 C 69.0625 12.007812 68.042969 12.007812 67.023438 12.007812 Z M 67.023438 12.007812 "/>
</g>
<mask id="mask3">
  <g filter="url(#alpha)">
<rect x="0" y="0" width="122" height="39" style="fill:rgb(0%,0%,0%);fill-opacity:0.529412;stroke:none;"/>
  </g>
</mask>
<clipPath id="clip4">
  <rect x="0" y="0" width="122" height="39"/>
</clipPath>
<g id="surface14" clip-path="url(#clip4)">
<path style=" stroke:none;fill-rule:evenodd;fill:rgb(72.156863%,78.823529%,89.019608%);fill-opacity:1;" d="M 93.601562 14.503906 C 94.625 14.503906 95.644531 14.503906 96.664062 14.503906 C 96.664062 13.671875 96.664062 12.839844 96.664062 12.007812 C 95.644531 12.007812 94.625 12.007812 93.601562 12.007812 C 93.601562 12.777344 93.601562 13.542969 93.601562 14.3125 C 93.351562 13.507812 93.351562 12.675781 93.601562 11.816406 C 93.730469 11.75 93.859375 11.6875 93.984375 11.625 C 94.878906 11.820312 95.769531 11.851562 96.664062 11.71875 C 96.757812 11.816406 96.855469 11.910156 96.949219 12.007812 C 97.101562 12.886719 97.070312 13.753906 96.855469 14.601562 C 95.734375 14.757812 94.652344 14.726562 93.601562 14.503906 Z M 93.601562 14.503906 "/>
</g>
<mask id="mask4">
  <g filter="url(#alpha)">
<rect x="0" y="0" width="122" height="39" style="fill:rgb(0%,0%,0%);fill-opacity:0.419608;stroke:none;"/>
  </g>
</mask>
<clipPath id="clip5">
  <rect x="0" y="0" width="122" height="39"/>
</clipPath>
<g id="surface17" clip-path="url(#clip5)">
<path style=" stroke:none;fill-rule:evenodd;fill:rgb(80.784314%,74.509804%,63.921569%);fill-opacity:1;" d="M 56.507812 12.007812 C 56.441406 12.007812 56.378906 12.007812 56.316406 12.007812 C 55.359375 12.007812 54.402344 12.007812 53.445312 12.007812 C 53.445312 17.066406 53.445312 22.125 53.445312 27.183594 C 54.402344 27.183594 55.359375 27.183594 56.316406 27.183594 C 56.257812 26.78125 56.320312 26.394531 56.507812 26.03125 C 56.660156 26.121094 56.722656 26.246094 56.699219 26.417969 C 56.515625 26.6875 56.453125 27.007812 56.507812 27.375 C 55.421875 27.375 54.339844 27.375 53.253906 27.375 C 53.253906 22.191406 53.253906 17.003906 53.253906 11.816406 C 54.375 11.753906 55.460938 11.816406 56.507812 12.007812 Z M 56.507812 12.007812 "/>
</g>
<mask id="mask5">
  <g filter="url(#alpha)">
<rect x="0" y="0" width="122" height="39" style="fill:rgb(0%,0%,0%);fill-opacity:0.694118;stroke:none;"/>
  </g>
</mask>
<clipPath id="clip6">
  <rect x="0" y="0" width="122" height="39"/>
</clipPath>
<g id="surface20" clip-path="url(#clip6)">
<path style=" stroke:none;fill-rule:evenodd;fill:rgb(81.176471%,70.196078%,41.960784%);fill-opacity:1;" d="M 56.316406 12.007812 C 56.378906 12.007812 56.441406 12.007812 56.507812 12.007812 C 56.445312 13.644531 56.507812 15.246094 56.699219 16.808594 C 56.644531 16.960938 56.546875 17.089844 56.410156 17.195312 C 56.316406 15.464844 56.285156 13.738281 56.316406 12.007812 Z M 56.316406 12.007812 "/>
</g>
<mask id="mask6">
  <g filter="url(#alpha)">
<rect x="0" y="0" width="122" height="39" style="fill:rgb(0%,0%,0%);fill-opacity:0.164706;stroke:none;"/>
  </g>
</mask>
<clipPath id="clip7">
  <rect x="0" y="0" width="122" height="39"/>
</clipPath>
<g id="surface23" clip-path="url(#clip7)">
<path style=" stroke:none;fill-rule:evenodd;fill:rgb(87.058824%,84.313725%,83.529412%);fill-opacity:1;" d="M 18.835938 15.464844 C 20.136719 15.273438 21.476562 15.210938 22.851562 15.273438 C 22.851562 20.332031 22.851562 25.390625 22.851562 30.449219 C 21.476562 30.511719 20.136719 30.449219 18.835938 30.257812 C 20.109375 30.257812 21.386719 30.257812 22.660156 30.257812 C 22.660156 25.328125 22.660156 20.398438 22.660156 15.464844 C 21.386719 15.464844 20.109375 15.464844 18.835938 15.464844 Z M 18.835938 15.464844 "/>
</g>
<mask id="mask7">
  <g filter="url(#alpha)">
<rect x="0" y="0" width="122" height="39" style="fill:rgb(0%,0%,0%);fill-opacity:0.462745;stroke:none;"/>
  </g>
</mask>
<clipPath id="clip8">
  <rect x="0" y="0" width="122" height="39"/>
</clipPath>
<g id="surface26" clip-path="url(#clip8)">
<path style=" stroke:none;fill-rule:evenodd;fill:rgb(81.568627%,75.686275%,66.666667%);fill-opacity:1;" d="M 39.679688 16.042969 C 40.726562 15.851562 41.808594 15.789062 42.929688 15.851562 C 42.875 16.21875 42.9375 16.539062 43.121094 16.808594 C 43.066406 16.960938 42.972656 17.089844 42.832031 17.195312 C 42.738281 16.816406 42.707031 16.429688 42.738281 16.042969 C 41.71875 16.042969 40.699219 16.042969 39.679688 16.042969 Z M 39.679688 16.042969 "/>
</g>
<mask id="mask8">
  <g filter="url(#alpha)">
<rect x="0" y="0" width="122" height="39" style="fill:rgb(0%,0%,0%);fill-opacity:0.0666667;stroke:none;"/>
  </g>
</mask>
<clipPath id="clip9">
  <rect x="0" y="0" width="122" height="39"/>
</clipPath>
<g id="surface29" clip-path="url(#clip9)">
<path style=" stroke:none;fill-rule:evenodd;fill:rgb(89.803922%,85.490196%,79.215686%);fill-opacity:1;" d="M 44.652344 15.851562 C 44.328125 16.140625 43.945312 16.332031 43.503906 16.425781 C 43.773438 16.035156 44.15625 15.84375 44.652344 15.851562 Z M 44.652344 15.851562 "/>
</g>
<mask id="mask9">
  <g filter="url(#alpha)">
<rect x="0" y="0" width="122" height="39" style="fill:rgb(0%,0%,0%);fill-opacity:0.027451;stroke:none;"/>
  </g>
</mask>
<clipPath id="clip10">
  <rect x="0" y="0" width="122" height="39"/>
</clipPath>
<g id="surface32" clip-path="url(#clip10)">
<path style=" stroke:none;fill-rule:evenodd;fill:rgb(90.196078%,87.843137%,85.098039%);fill-opacity:1;" d="M 58.417969 15.851562 C 58.796875 15.722656 59.210938 15.660156 59.660156 15.65625 C 60.328125 15.625 60.933594 15.753906 61.476562 16.042969 C 60.464844 15.894531 59.445312 15.828125 58.417969 15.851562 Z M 58.417969 15.851562 "/>
</g>
<mask id="mask10">
  <g filter="url(#alpha)">
<rect x="0" y="0" width="122" height="39" style="fill:rgb(0%,0%,0%);fill-opacity:0.447059;stroke:none;"/>
  </g>
</mask>
<clipPath id="clip11">
  <rect x="0" y="0" width="122" height="39"/>
</clipPath>
<g id="surface35" clip-path="url(#clip11)">
<path style=" stroke:none;fill-rule:evenodd;fill:rgb(80.392157%,74.117647%,63.137255%);fill-opacity:1;" d="M 70.082031 15.851562 C 70.082031 15.914062 70.082031 15.976562 70.082031 16.042969 C 69.0625 16.042969 68.042969 16.042969 67.023438 16.042969 C 67.992188 15.910156 68.980469 15.78125 69.988281 15.65625 C 70.0625 15.703125 70.09375 15.765625 70.082031 15.851562 Z M 70.082031 15.851562 "/>
</g>
<mask id="mask11">
  <g filter="url(#alpha)">
<rect x="0" y="0" width="122" height="39" style="fill:rgb(0%,0%,0%);fill-opacity:0.0117647;stroke:none;"/>
  </g>
</mask>
<clipPath id="clip12">
  <rect x="0" y="0" width="122" height="39"/>
</clipPath>
<g id="surface38" clip-path="url(#clip12)">
<path style=" stroke:none;fill-rule:evenodd;fill:rgb(91.764706%,88.627451%,83.921569%);fill-opacity:1;" d="M 48.667969 16.425781 C 48.957031 16.410156 49.148438 16.539062 49.238281 16.808594 C 48.949219 16.824219 48.757812 16.695312 48.667969 16.425781 Z M 48.667969 16.425781 "/>
</g>
<mask id="mask12">
  <g filter="url(#alpha)">
<rect x="0" y="0" width="122" height="39" style="fill:rgb(0%,0%,0%);fill-opacity:0.698039;stroke:none;"/>
  </g>
</mask>
<clipPath id="clip13">
  <rect x="0" y="0" width="122" height="39"/>
</clipPath>
<g id="surface41" clip-path="url(#clip13)">
<path style=" stroke:none;fill-rule:evenodd;fill:rgb(87.843137%,78.823529%,58.823529%);fill-opacity:1;" d="M 57.460938 16.234375 C 57.316406 16.574219 57.0625 16.765625 56.699219 16.808594 C 56.84375 16.472656 57.097656 16.28125 57.460938 16.234375 Z M 57.460938 16.234375 "/>
</g>
<mask id="mask13">
  <g filter="url(#alpha)">
<rect x="0" y="0" width="122" height="39" style="fill:rgb(0%,0%,0%);fill-opacity:0.0117647;stroke:none;"/>
  </g>
</mask>
<clipPath id="clip14">
  <rect x="0" y="0" width="122" height="39"/>
</clipPath>
<g id="surface44" clip-path="url(#clip14)">
<path style=" stroke:none;fill-rule:evenodd;fill:rgb(89.803922%,85.882353%,79.215686%);fill-opacity:1;" d="M 49.429688 17.003906 C 49.878906 17.066406 50.132812 17.324219 50.195312 17.769531 C 49.878906 17.578125 49.621094 17.324219 49.429688 17.003906 Z M 49.429688 17.003906 "/>
</g>
<mask id="mask14">
  <g filter="url(#alpha)">
<rect x="0" y="0" width="122" height="39" style="fill:rgb(0%,0%,0%);fill-opacity:0.843137;stroke:none;"/>
  </g>
</mask>
<clipPath id="clip15">
  <rect x="0" y="0" width="122" height="39"/>
</clipPath>
<g id="surface47" clip-path="url(#clip15)">
<path style=" stroke:none;fill-rule:evenodd;fill:rgb(89.019608%,78.823529%,58.823529%);fill-opacity:1;" d="M 63.582031 17.386719 C 63.917969 17.53125 64.109375 17.789062 64.15625 18.15625 C 63.816406 18.007812 63.628906 17.753906 63.582031 17.386719 Z M 63.582031 17.386719 "/>
</g>
<mask id="mask15">
  <g filter="url(#alpha)">
<rect x="0" y="0" width="122" height="39" style="fill:rgb(0%,0%,0%);fill-opacity:0.486275;stroke:none;"/>
  </g>
</mask>
<clipPath id="clip16">
  <rect x="0" y="0" width="122" height="39"/>
</clipPath>
<g id="surface50" clip-path="url(#clip16)">
<path style=" stroke:none;fill-rule:evenodd;fill:rgb(60%,71.372549%,85.490196%);fill-opacity:1;" d="M 93.601562 27.183594 C 94.625 27.183594 95.644531 27.183594 96.664062 27.183594 C 96.664062 23.46875 96.664062 19.757812 96.664062 16.042969 C 95.644531 16.042969 94.625 16.042969 93.601562 16.042969 C 94.5 15.898438 95.425781 15.773438 96.375 15.65625 C 96.523438 15.683594 96.652344 15.75 96.757812 15.851562 C 96.828125 17.902344 96.921875 19.949219 97.046875 21.996094 C 96.898438 23.789062 96.832031 25.582031 96.855469 27.375 C 95.734375 27.4375 94.652344 27.375 93.601562 27.183594 Z M 93.601562 27.183594 "/>
</g>
<mask id="mask16">
  <g filter="url(#alpha)">
<rect x="0" y="0" width="122" height="39" style="fill:rgb(0%,0%,0%);fill-opacity:0.360784;stroke:none;"/>
  </g>
</mask>
<clipPath id="clip17">
  <rect x="0" y="0" width="122" height="39"/>
</clipPath>
<g id="surface53" clip-path="url(#clip17)">
<path style=" stroke:none;fill-rule:evenodd;fill:rgb(73.333333%,80%,89.411765%);fill-opacity:1;" d="M 110.238281 17.578125 C 110.253906 17.871094 110.125 18.0625 109.855469 18.15625 C 109.84375 17.863281 109.972656 17.667969 110.238281 17.578125 Z M 110.238281 17.578125 "/>
</g>
<mask id="mask17">
  <g filter="url(#alpha)">
<rect x="0" y="0" width="122" height="39" style="fill:rgb(0%,0%,0%);fill-opacity:0.721569;stroke:none;"/>
  </g>
</mask>
<clipPath id="clip18">
  <rect x="0" y="0" width="122" height="39"/>
</clipPath>
<g id="surface56" clip-path="url(#clip18)">
<path style=" stroke:none;fill-rule:evenodd;fill:rgb(88.235294%,78.039216%,57.254902%);fill-opacity:1;" d="M 50.195312 17.769531 C 50.53125 17.917969 50.722656 18.171875 50.769531 18.539062 C 50.433594 18.394531 50.242188 18.136719 50.195312 17.769531 Z M 50.195312 17.769531 "/>
</g>
<mask id="mask18">
  <g filter="url(#alpha)">
<rect x="0" y="0" width="122" height="39" style="fill:rgb(0%,0%,0%);fill-opacity:0.266667;stroke:none;"/>
  </g>
</mask>
<clipPath id="clip19">
  <rect x="0" y="0" width="122" height="39"/>
</clipPath>
<g id="surface59" clip-path="url(#clip19)">
<path style=" stroke:none;fill-rule:evenodd;fill:rgb(88.627451%,82.745098%,73.333333%);fill-opacity:1;" d="M 64.15625 18.15625 C 64.425781 18.246094 64.550781 18.4375 64.539062 18.730469 C 64.269531 18.640625 64.140625 18.449219 64.15625 18.15625 Z M 64.15625 18.15625 "/>
</g>
<mask id="mask19">
  <g filter="url(#alpha)">
<rect x="0" y="0" width="122" height="39" style="fill:rgb(0%,0%,0%);fill-opacity:0.831373;stroke:none;"/>
  </g>
</mask>
<clipPath id="clip20">
  <rect x="0" y="0" width="122" height="39"/>
</clipPath>
<g id="surface62" clip-path="url(#clip20)">
<path style=" stroke:none;fill-rule:evenodd;fill:rgb(89.411765%,78.431373%,52.54902%);fill-opacity:1;" d="M 32.792969 8.742188 C 32.859375 8.742188 32.921875 8.742188 32.984375 8.742188 C 33.242188 15.914062 33.242188 23.085938 32.984375 30.257812 C 32.921875 30.257812 32.859375 30.257812 32.792969 30.257812 C 32.792969 23.085938 32.792969 15.914062 32.792969 8.742188 Z M 32.792969 8.742188 "/>
</g>
<mask id="mask20">
  <g filter="url(#alpha)">
<rect x="0" y="0" width="122" height="39" style="fill:rgb(0%,0%,0%);fill-opacity:0.447059;stroke:none;"/>
  </g>
</mask>
<clipPath id="clip21">
  <rect x="0" y="0" width="122" height="39"/>
</clipPath>
<g id="surface65" clip-path="url(#clip21)">
<path style=" stroke:none;fill-rule:evenodd;fill:rgb(86.666667%,80%,68.235294%);fill-opacity:1;" d="M 46.945312 18.921875 C 47.238281 18.910156 47.429688 19.039062 47.519531 19.308594 C 47.226562 19.320312 47.035156 19.195312 46.945312 18.921875 Z M 46.945312 18.921875 "/>
</g>
<mask id="mask21">
  <g filter="url(#alpha)">
<rect x="0" y="0" width="122" height="39" style="fill:rgb(0%,0%,0%);fill-opacity:0.0235294;stroke:none;"/>
  </g>
</mask>
<clipPath id="clip22">
  <rect x="0" y="0" width="122" height="39"/>
</clipPath>
<g id="surface68" clip-path="url(#clip22)">
<path style=" stroke:none;fill-rule:evenodd;fill:rgb(91.764706%,88.235294%,83.137255%);fill-opacity:1;" d="M 43.886719 19.117188 C 43.695312 19.4375 43.441406 19.691406 43.121094 19.882812 C 43.183594 19.4375 43.441406 19.179688 43.886719 19.117188 Z M 43.886719 19.117188 "/>
</g>
<mask id="mask22">
  <g filter="url(#alpha)">
<rect x="0" y="0" width="122" height="39" style="fill:rgb(0%,0%,0%);fill-opacity:0.0470588;stroke:none;"/>
  </g>
</mask>
<clipPath id="clip23">
  <rect x="0" y="0" width="122" height="39"/>
</clipPath>
<g id="surface71" clip-path="url(#clip23)">
<path style=" stroke:none;fill-rule:evenodd;fill:rgb(90.196078%,86.666667%,82.745098%);fill-opacity:1;" d="M 50.960938 18.921875 C 51.261719 19.230469 51.390625 19.617188 51.34375 20.078125 C 51.105469 19.746094 50.980469 19.363281 50.960938 18.921875 Z M 50.960938 18.921875 "/>
</g>
<mask id="mask23">
  <g filter="url(#alpha)">
<rect x="0" y="0" width="122" height="39" style="fill:rgb(0%,0%,0%);fill-opacity:0.0627451;stroke:none;"/>
  </g>
</mask>
<clipPath id="clip24">
  <rect x="0" y="0" width="122" height="39"/>
</clipPath>
<g id="surface74" clip-path="url(#clip24)">
<path style=" stroke:none;fill-rule:evenodd;fill:rgb(83.529412%,86.666667%,92.156863%);fill-opacity:1;" d="M 98.765625 18.730469 C 98.859375 19.175781 98.925781 19.621094 98.957031 20.078125 C 98.609375 19.652344 98.546875 19.203125 98.765625 18.730469 Z M 98.765625 18.730469 "/>
</g>
<mask id="mask24">
  <g filter="url(#alpha)">
<rect x="0" y="0" width="122" height="39" style="fill:rgb(0%,0%,0%);fill-opacity:0.0313725;stroke:none;"/>
  </g>
</mask>
<clipPath id="clip25">
  <rect x="0" y="0" width="122" height="39"/>
</clipPath>
<g id="surface77" clip-path="url(#clip25)">
<path style=" stroke:none;fill-rule:evenodd;fill:rgb(92.941176%,92.54902%,94.901961%);fill-opacity:1;" d="M 112.34375 19.882812 C 113.066406 20.140625 113.863281 20.265625 114.734375 20.269531 C 115.566406 20.269531 116.363281 20.203125 117.125 20.078125 C 117.226562 20.085938 117.292969 20.152344 117.316406 20.269531 C 115.535156 20.492188 113.75 20.523438 111.960938 20.363281 C 112.070312 20.171875 112.195312 20.011719 112.34375 19.882812 Z M 112.34375 19.882812 "/>
</g>
<mask id="mask25">
  <g filter="url(#alpha)">
<rect x="0" y="0" width="122" height="39" style="fill:rgb(0%,0%,0%);fill-opacity:0.0196078;stroke:none;"/>
  </g>
</mask>
<clipPath id="clip26">
  <rect x="0" y="0" width="122" height="39"/>
</clipPath>
<g id="surface80" clip-path="url(#clip26)">
<path style=" stroke:none;fill-rule:evenodd;fill:rgb(89.803922%,90.588235%,93.72549%);fill-opacity:1;" d="M 82.511719 20.652344 C 82.386719 20.523438 82.257812 20.398438 82.128906 20.269531 C 82.105469 20.125 82.136719 20 82.226562 19.882812 C 82.453125 20.089844 82.546875 20.34375 82.511719 20.652344 Z M 82.511719 20.652344 "/>
</g>
<mask id="mask26">
  <g filter="url(#alpha)">
<rect x="0" y="0" width="122" height="39" style="fill:rgb(0%,0%,0%);fill-opacity:0.572549;stroke:none;"/>
  </g>
</mask>
<clipPath id="clip27">
  <rect x="0" y="0" width="122" height="39"/>
</clipPath>
<g id="surface83" clip-path="url(#clip27)">
<path style=" stroke:none;fill-rule:evenodd;fill:rgb(61.960784%,73.333333%,87.843137%);fill-opacity:1;" d="M 119.800781 19.117188 C 120.09375 19.566406 120.222656 20.078125 120.183594 20.652344 C 119.941406 20.191406 119.8125 19.679688 119.800781 19.117188 Z M 119.800781 19.117188 "/>
</g>
<mask id="mask27">
  <g filter="url(#alpha)">
<rect x="0" y="0" width="122" height="39" style="fill:rgb(0%,0%,0%);fill-opacity:0.337255;stroke:none;"/>
  </g>
</mask>
<clipPath id="clip28">
  <rect x="0" y="0" width="122" height="39"/>
</clipPath>
<g id="surface86" clip-path="url(#clip28)">
<path style=" stroke:none;fill-rule:evenodd;fill:rgb(84.313725%,80%,74.901961%);fill-opacity:1;" d="M 30.117188 9.894531 C 30.117188 9.828125 30.117188 9.765625 30.117188 9.703125 C 30.753906 9.703125 31.390625 9.703125 32.03125 9.703125 C 32.03125 16.234375 32.03125 22.765625 32.03125 29.296875 C 31.351562 29.359375 30.714844 29.292969 30.117188 29.105469 C 30.691406 29.105469 31.265625 29.105469 31.839844 29.105469 C 31.839844 22.703125 31.839844 16.296875 31.839844 9.894531 C 31.265625 9.894531 30.691406 9.894531 30.117188 9.894531 Z M 30.117188 9.894531 "/>
</g>
<mask id="mask28">
  <g filter="url(#alpha)">
<rect x="0" y="0" width="122" height="39" style="fill:rgb(0%,0%,0%);fill-opacity:0.458824;stroke:none;"/>
  </g>
</mask>
<clipPath id="clip29">
  <rect x="0" y="0" width="122" height="39"/>
</clipPath>
<g id="surface89" clip-path="url(#clip29)">
<path style=" stroke:none;fill-rule:evenodd;fill:rgb(84.313725%,76.078431%,60%);fill-opacity:1;" d="M 42.738281 20.84375 C 42.75 21.554688 42.8125 22.261719 42.929688 22.957031 C 42.535156 22.277344 42.46875 21.574219 42.738281 20.84375 Z M 42.738281 20.84375 "/>
</g>
<mask id="mask29">
  <g filter="url(#alpha)">
<rect x="0" y="0" width="122" height="39" style="fill:rgb(0%,0%,0%);fill-opacity:0.584314;stroke:none;"/>
  </g>
</mask>
<clipPath id="clip30">
  <rect x="0" y="0" width="122" height="39"/>
</clipPath>
<g id="surface92" clip-path="url(#clip30)">
<path style=" stroke:none;fill-rule:evenodd;fill:rgb(87.058824%,81.960784%,73.333333%);fill-opacity:1;" d="M 51.34375 20.078125 C 51.488281 20.5625 51.613281 21.074219 51.726562 21.613281 C 51.613281 22.152344 51.488281 22.664062 51.34375 23.148438 C 51.34375 22.125 51.34375 21.101562 51.34375 20.078125 Z M 51.34375 20.078125 "/>
</g>
<mask id="mask30">
  <g filter="url(#alpha)">
<rect x="0" y="0" width="122" height="39" style="fill:rgb(0%,0%,0%);fill-opacity:0.0156863;stroke:none;"/>
  </g>
</mask>
<clipPath id="clip31">
  <rect x="0" y="0" width="122" height="39"/>
</clipPath>
<g id="surface95" clip-path="url(#clip31)">
<path style=" stroke:none;fill-rule:evenodd;fill:rgb(94.901961%,93.333333%,91.764706%);fill-opacity:1;" d="M 65.109375 20.652344 C 65.363281 21.628906 65.300781 22.589844 64.921875 23.535156 C 65.027344 22.578125 65.089844 21.617188 65.109375 20.652344 Z M 65.109375 20.652344 "/>
</g>
<mask id="mask31">
  <g filter="url(#alpha)">
<rect x="0" y="0" width="122" height="39" style="fill:rgb(0%,0%,0%);fill-opacity:0.0980392;stroke:none;"/>
  </g>
</mask>
<clipPath id="clip32">
  <rect x="0" y="0" width="122" height="39"/>
</clipPath>
<g id="surface98" clip-path="url(#clip32)">
<path style=" stroke:none;fill-rule:evenodd;fill:rgb(86.27451%,87.058824%,91.764706%);fill-opacity:1;" d="M 86.910156 21.804688 C 86.929688 22.199219 86.800781 22.519531 86.527344 22.765625 C 86.507812 22.371094 86.636719 22.050781 86.910156 21.804688 Z M 86.910156 21.804688 "/>
</g>
<mask id="mask32">
  <g filter="url(#alpha)">
<rect x="0" y="0" width="122" height="39" style="fill:rgb(0%,0%,0%);fill-opacity:0.0117647;stroke:none;"/>
  </g>
</mask>
<clipPath id="clip33">
  <rect x="0" y="0" width="122" height="39"/>
</clipPath>
<g id="surface101" clip-path="url(#clip33)">
<path style=" stroke:none;fill-rule:evenodd;fill:rgb(92.941176%,93.72549%,96.078431%);fill-opacity:1;" d="M 112.917969 22.765625 C 112.660156 22.894531 112.40625 23.023438 112.152344 23.148438 C 112.046875 23.140625 111.984375 23.074219 111.960938 22.957031 C 112.257812 22.773438 112.574219 22.710938 112.917969 22.765625 Z M 112.917969 22.765625 "/>
</g>
<mask id="mask33">
  <g filter="url(#alpha)">
<rect x="0" y="0" width="122" height="39" style="fill:rgb(0%,0%,0%);fill-opacity:0.129412;stroke:none;"/>
  </g>
</mask>
<clipPath id="clip34">
  <rect x="0" y="0" width="122" height="39"/>
</clipPath>
<g id="surface104" clip-path="url(#clip34)">
<path style=" stroke:none;fill-rule:evenodd;fill:rgb(81.960784%,83.137255%,89.411765%);fill-opacity:1;" d="M 86.144531 22.574219 C 86.273438 22.636719 86.402344 22.703125 86.527344 22.765625 C 86.382812 23.464844 86.253906 23.402344 86.144531 22.574219 Z M 86.144531 22.574219 "/>
</g>
<mask id="mask34">
  <g filter="url(#alpha)">
<rect x="0" y="0" width="122" height="39" style="fill:rgb(0%,0%,0%);fill-opacity:0.176471;stroke:none;"/>
  </g>
</mask>
<clipPath id="clip35">
  <rect x="0" y="0" width="122" height="39"/>
</clipPath>
<g id="surface107" clip-path="url(#clip35)">
<path style=" stroke:none;fill-rule:evenodd;fill:rgb(87.843137%,85.882353%,86.27451%);fill-opacity:1;" d="M 21.320312 16.425781 C 20.917969 16.613281 20.472656 16.675781 19.984375 16.617188 C 19.921875 20.859375 19.984375 25.085938 20.175781 29.296875 C 20.046875 29.296875 19.917969 29.296875 19.792969 29.296875 C 19.792969 25.007812 19.792969 20.714844 19.792969 16.425781 C 20.300781 16.425781 20.8125 16.425781 21.320312 16.425781 Z M 21.320312 16.425781 "/>
</g>
<mask id="mask35">
  <g filter="url(#alpha)">
<rect x="0" y="0" width="122" height="39" style="fill:rgb(0%,0%,0%);fill-opacity:0.835294;stroke:none;"/>
  </g>
</mask>
<clipPath id="clip36">
  <rect x="0" y="0" width="122" height="39"/>
</clipPath>
<g id="surface110" clip-path="url(#clip36)">
<path style=" stroke:none;fill-rule:evenodd;fill:rgb(88.235294%,78.431373%,57.254902%);fill-opacity:1;" d="M 61.667969 23.34375 C 61.605469 23.789062 61.351562 24.046875 60.90625 24.109375 C 61.09375 23.789062 61.351562 23.535156 61.667969 23.34375 Z M 61.667969 23.34375 "/>
</g>
<mask id="mask36">
  <g filter="url(#alpha)">
<rect x="0" y="0" width="122" height="39" style="fill:rgb(0%,0%,0%);fill-opacity:0.643137;stroke:none;"/>
  </g>
</mask>
<clipPath id="clip37">
  <rect x="0" y="0" width="122" height="39"/>
</clipPath>
<g id="surface113" clip-path="url(#clip37)">
<path style=" stroke:none;fill-rule:evenodd;fill:rgb(89.019608%,82.745098%,71.372549%);fill-opacity:1;" d="M 56.890625 23.535156 C 57.144531 23.664062 57.335938 23.855469 57.460938 24.109375 C 57.078125 24.109375 56.890625 23.917969 56.890625 23.535156 Z M 56.890625 23.535156 "/>
</g>
<mask id="mask37">
  <g filter="url(#alpha)">
<rect x="0" y="0" width="122" height="39" style="fill:rgb(0%,0%,0%);fill-opacity:0.768627;stroke:none;"/>
  </g>
</mask>
<clipPath id="clip38">
  <rect x="0" y="0" width="122" height="39"/>
</clipPath>
<g id="surface116" clip-path="url(#clip38)">
<path style=" stroke:none;fill-rule:evenodd;fill:rgb(83.921569%,72.941176%,45.098039%);fill-opacity:1;" d="M 13.671875 19.5 C 13.734375 19.5 13.800781 19.5 13.863281 19.5 C 13.863281 23.085938 13.863281 26.671875 13.863281 30.257812 C 13.800781 30.257812 13.734375 30.257812 13.671875 30.257812 C 13.636719 26.65625 13.636719 23.070312 13.671875 19.5 Z M 13.671875 19.5 "/>
</g>
<mask id="mask38">
  <g filter="url(#alpha)">
<rect x="0" y="0" width="122" height="39" style="fill:rgb(0%,0%,0%);fill-opacity:0.137255;stroke:none;"/>
  </g>
</mask>
<clipPath id="clip39">
  <rect x="0" y="0" width="122" height="39"/>
</clipPath>
<g id="surface119" clip-path="url(#clip39)">
<path style=" stroke:none;fill-rule:evenodd;fill:rgb(90.588235%,88.235294%,86.666667%);fill-opacity:1;" d="M 60.90625 24.109375 C 60.753906 24.417969 60.5 24.546875 60.140625 24.496094 C 60.332031 24.269531 60.589844 24.140625 60.90625 24.109375 Z M 60.90625 24.109375 "/>
</g>
<mask id="mask39">
  <g filter="url(#alpha)">
<rect x="0" y="0" width="122" height="39" style="fill:rgb(0%,0%,0%);fill-opacity:0.419608;stroke:none;"/>
  </g>
</mask>
<clipPath id="clip40">
  <rect x="0" y="0" width="122" height="39"/>
</clipPath>
<g id="surface122" clip-path="url(#clip40)">
<path style=" stroke:none;fill-rule:evenodd;fill:rgb(84.313725%,79.607843%,73.333333%);fill-opacity:1;" d="M 16.539062 20.460938 C 16.539062 20.523438 16.539062 20.589844 16.539062 20.652344 C 15.96875 20.652344 15.394531 20.652344 14.820312 20.652344 C 14.820312 23.46875 14.820312 26.289062 14.820312 29.105469 C 15.394531 29.105469 15.96875 29.105469 16.539062 29.105469 C 15.941406 29.292969 15.304688 29.359375 14.628906 29.296875 C 14.628906 26.351562 14.628906 23.40625 14.628906 20.460938 C 15.265625 20.460938 15.902344 20.460938 16.539062 20.460938 Z M 16.539062 20.460938 "/>
</g>
<mask id="mask40">
  <g filter="url(#alpha)">
<rect x="0" y="0" width="122" height="39" style="fill:rgb(0%,0%,0%);fill-opacity:0.772549;stroke:none;"/>
  </g>
</mask>
<clipPath id="clip41">
  <rect x="0" y="0" width="122" height="39"/>
</clipPath>
<g id="surface125" clip-path="url(#clip41)">
<path style=" stroke:none;fill-rule:evenodd;fill:rgb(87.45098%,76.862745%,52.941176%);fill-opacity:1;" d="M 16.539062 20.460938 C 16.730469 23.4375 16.796875 26.445312 16.730469 29.488281 C 15.992188 29.550781 15.289062 29.488281 14.628906 29.296875 C 15.304688 29.359375 15.941406 29.292969 16.539062 29.105469 C 16.285156 26.289062 16.285156 23.46875 16.539062 20.652344 C 16.539062 20.589844 16.539062 20.523438 16.539062 20.460938 Z M 16.539062 20.460938 "/>
</g>
<mask id="mask41">
  <g filter="url(#alpha)">
<rect x="0" y="0" width="122" height="39" style="fill:rgb(0%,0%,0%);fill-opacity:0.0235294;stroke:none;"/>
  </g>
</mask>
<clipPath id="clip42">
  <rect x="0" y="0" width="122" height="39"/>
</clipPath>
<g id="surface128" clip-path="url(#clip42)">
<path style=" stroke:none;fill-rule:evenodd;fill:rgb(92.156863%,90.196078%,88.627451%);fill-opacity:1;" d="M 57.652344 24.304688 C 58.472656 24.457031 59.300781 24.519531 60.140625 24.496094 C 59.828125 24.621094 59.476562 24.6875 59.085938 24.6875 C 58.539062 24.726562 58.0625 24.597656 57.652344 24.304688 Z M 57.652344 24.304688 "/>
</g>
<mask id="mask42">
  <g filter="url(#alpha)">
<rect x="0" y="0" width="122" height="39" style="fill:rgb(0%,0%,0%);fill-opacity:0.407843;stroke:none;"/>
  </g>
</mask>
<clipPath id="clip43">
  <rect x="0" y="0" width="122" height="39"/>
</clipPath>
<g id="surface131" clip-path="url(#clip43)">
<path style=" stroke:none;fill-rule:evenodd;fill:rgb(81.176471%,76.078431%,69.019608%);fill-opacity:1;" d="M 13.671875 19.5 C 14.976562 19.308594 16.3125 19.246094 17.6875 19.308594 C 17.6875 23.023438 17.6875 26.738281 17.6875 30.449219 C 16.3125 30.511719 14.976562 30.449219 13.671875 30.257812 C 13.734375 30.257812 13.800781 30.257812 13.863281 30.257812 C 15.074219 30.257812 16.285156 30.257812 17.496094 30.257812 C 17.496094 26.671875 17.496094 23.085938 17.496094 19.5 C 16.285156 19.5 15.074219 19.5 13.863281 19.5 C 13.800781 19.5 13.734375 19.5 13.671875 19.5 Z M 13.671875 19.5 "/>
</g>
<mask id="mask43">
  <g filter="url(#alpha)">
<rect x="0" y="0" width="122" height="39" style="fill:rgb(0%,0%,0%);fill-opacity:0.470588;stroke:none;"/>
  </g>
</mask>
<clipPath id="clip44">
  <rect x="0" y="0" width="122" height="39"/>
</clipPath>
<g id="surface134" clip-path="url(#clip44)">
<path style=" stroke:none;fill-rule:evenodd;fill:rgb(80%,72.54902%,58.431373%);fill-opacity:1;" d="M 8.507812 22.957031 C 9.847656 22.957031 11.1875 22.957031 12.523438 22.957031 C 12.523438 25.457031 12.523438 27.953125 12.523438 30.449219 C 11.1875 30.449219 9.847656 30.449219 8.507812 30.449219 C 8.507812 27.953125 8.507812 25.457031 8.507812 22.957031 Z M 11.378906 24.109375 C 11.4375 25.855469 11.371094 27.585938 11.1875 29.296875 C 10.6875 29.132812 10.210938 29.070312 9.753906 29.105469 C 9.625 27.503906 9.625 25.902344 9.753906 24.304688 C 10.28125 24.339844 10.820312 24.273438 11.378906 24.109375 Z M 11.378906 24.109375 "/>
</g>
<mask id="mask44">
  <g filter="url(#alpha)">
<rect x="0" y="0" width="122" height="39" style="fill:rgb(0%,0%,0%);fill-opacity:0.701961;stroke:none;"/>
  </g>
</mask>
<clipPath id="clip45">
  <rect x="0" y="0" width="122" height="39"/>
</clipPath>
<g id="surface137" clip-path="url(#clip45)">
<path style=" stroke:none;fill-rule:evenodd;fill:rgb(84.705882%,74.509804%,49.411765%);fill-opacity:1;" d="M 11.570312 24.109375 C 11.503906 24.109375 11.441406 24.109375 11.378906 24.109375 C 10.820312 24.273438 10.28125 24.339844 9.753906 24.304688 C 9.625 25.902344 9.625 27.503906 9.753906 29.105469 C 10.210938 29.070312 10.6875 29.132812 11.1875 29.296875 C 11.3125 29.296875 11.441406 29.296875 11.570312 29.296875 C 10.90625 29.488281 10.207031 29.550781 9.464844 29.488281 C 9.464844 27.632812 9.464844 25.777344 9.464844 23.917969 C 10.207031 23.859375 10.90625 23.921875 11.570312 24.109375 Z M 11.570312 24.109375 "/>
</g>
<mask id="mask45">
  <g filter="url(#alpha)">
<rect x="0" y="0" width="122" height="39" style="fill:rgb(0%,0%,0%);fill-opacity:0.482353;stroke:none;"/>
  </g>
</mask>
<clipPath id="clip46">
  <rect x="0" y="0" width="122" height="39"/>
</clipPath>
<g id="surface140" clip-path="url(#clip46)">
<path style=" stroke:none;fill-rule:evenodd;fill:rgb(80%,73.333333%,61.960784%);fill-opacity:1;" d="M 11.378906 24.109375 C 11.441406 24.109375 11.503906 24.109375 11.570312 24.109375 C 11.570312 25.839844 11.570312 27.570312 11.570312 29.296875 C 11.441406 29.296875 11.3125 29.296875 11.1875 29.296875 C 11.371094 27.585938 11.4375 25.855469 11.378906 24.109375 Z M 11.378906 24.109375 "/>
</g>
<mask id="mask46">
  <g filter="url(#alpha)">
<rect x="0" y="0" width="122" height="39" style="fill:rgb(0%,0%,0%);fill-opacity:0.0117647;stroke:none;"/>
  </g>
</mask>
<clipPath id="clip47">
  <rect x="0" y="0" width="122" height="39"/>
</clipPath>
<g id="surface143" clip-path="url(#clip47)">
<path style=" stroke:none;fill-rule:evenodd;fill:rgb(89.411765%,85.490196%,80.392157%);fill-opacity:1;" d="M 43.121094 26.417969 C 43.3125 26.480469 43.441406 26.609375 43.503906 26.800781 C 43.25 26.800781 43.121094 26.671875 43.121094 26.417969 Z M 43.121094 26.417969 "/>
</g>
<mask id="mask47">
  <g filter="url(#alpha)">
<rect x="0" y="0" width="122" height="39" style="fill:rgb(0%,0%,0%);fill-opacity:0.133333;stroke:none;"/>
  </g>
</mask>
<clipPath id="clip48">
  <rect x="0" y="0" width="122" height="39"/>
</clipPath>
<g id="surface146" clip-path="url(#clip48)">
<path style=" stroke:none;fill-rule:evenodd;fill:rgb(88.627451%,83.529412%,74.901961%);fill-opacity:1;" d="M 43.886719 26.992188 C 44.203125 27.023438 44.457031 27.152344 44.652344 27.375 C 44.289062 27.429688 44.035156 27.300781 43.886719 26.992188 Z M 43.886719 26.992188 "/>
</g>
<mask id="mask48">
  <g filter="url(#alpha)">
<rect x="0" y="0" width="122" height="39" style="fill:rgb(0%,0%,0%);fill-opacity:0.403922;stroke:none;"/>
  </g>
</mask>
<clipPath id="clip49">
  <rect x="0" y="0" width="122" height="39"/>
</clipPath>
<g id="surface149" clip-path="url(#clip49)">
<path style=" stroke:none;fill-rule:evenodd;fill:rgb(87.058824%,83.137255%,77.647059%);fill-opacity:1;" d="M 70.082031 15.851562 C 70.273438 19.660156 70.335938 23.5 70.273438 27.375 C 69.152344 27.4375 68.070312 27.375 67.023438 27.183594 C 68.042969 27.183594 69.0625 27.183594 70.082031 27.183594 C 70.082031 23.46875 70.082031 19.757812 70.082031 16.042969 C 70.082031 15.976562 70.082031 15.914062 70.082031 15.851562 Z M 70.082031 15.851562 "/>
</g>
<mask id="mask49">
  <g filter="url(#alpha)">
<rect x="0" y="0" width="122" height="39" style="fill:rgb(0%,0%,0%);fill-opacity:0.717647;stroke:none;"/>
  </g>
</mask>
<clipPath id="clip50">
  <rect x="0" y="0" width="122" height="39"/>
</clipPath>
<g id="surface152" clip-path="url(#clip50)">
<path style=" stroke:none;fill-rule:evenodd;fill:rgb(86.666667%,80.392157%,69.019608%);fill-opacity:1;" d="M 44.652344 27.375 C 45.542969 27.375 46.433594 27.375 47.328125 27.375 C 46.414062 27.800781 45.523438 27.800781 44.652344 27.375 Z M 44.652344 27.375 "/>
</g>
<mask id="mask50">
  <g filter="url(#alpha)">
<rect x="0" y="0" width="122" height="39" style="fill:rgb(0%,0%,0%);fill-opacity:0.407843;stroke:none;"/>
  </g>
</mask>
<clipPath id="clip51">
  <rect x="0" y="0" width="122" height="39"/>
</clipPath>
<g id="surface155" clip-path="url(#clip51)">
<path style=" stroke:none;fill-rule:evenodd;fill:rgb(89.019608%,84.313725%,76.862745%);fill-opacity:1;" d="M 58.226562 27.375 C 59.183594 27.375 60.140625 27.375 61.09375 27.375 C 60.132812 27.832031 59.175781 27.832031 58.226562 27.375 Z M 58.226562 27.375 "/>
</g>
<mask id="mask51">
  <g filter="url(#alpha)">
<rect x="0" y="0" width="122" height="39" style="fill:rgb(0%,0%,0%);fill-opacity:0.807843;stroke:none;"/>
  </g>
</mask>
<clipPath id="clip52">
  <rect x="0" y="0" width="122" height="39"/>
</clipPath>
<g id="surface158" clip-path="url(#clip52)">
<path style=" stroke:none;fill-rule:evenodd;fill:rgb(63.529412%,75.294118%,89.803922%);fill-opacity:1;" d="M 113.492188 27.375 C 114.511719 27.375 115.53125 27.375 116.550781 27.375 C 115.527344 27.847656 114.507812 27.847656 113.492188 27.375 Z M 113.492188 27.375 "/>
</g>
<mask id="mask52">
  <g filter="url(#alpha)">
<rect x="0" y="0" width="122" height="39" style="fill:rgb(0%,0%,0%);fill-opacity:0.203922;stroke:none;"/>
  </g>
</mask>
<clipPath id="clip53">
  <rect x="0" y="0" width="122" height="39"/>
</clipPath>
<g id="surface161" clip-path="url(#clip53)">
<path style=" stroke:none;fill-rule:evenodd;fill:rgb(85.882353%,83.137255%,82.352941%);fill-opacity:1;" d="M 43.121094 26.417969 C 42.992188 28.082031 42.867188 29.746094 42.738281 31.410156 C 42.707031 29.617188 42.738281 27.824219 42.832031 26.03125 C 42.972656 26.136719 43.066406 26.265625 43.121094 26.417969 Z M 43.121094 26.417969 "/>
</g>
<mask id="mask53">
  <g filter="url(#alpha)">
<rect x="0" y="0" width="122" height="39" style="fill:rgb(0%,0%,0%);fill-opacity:0.705882;stroke:none;"/>
  </g>
</mask>
<clipPath id="clip54">
  <rect x="0" y="0" width="122" height="39"/>
</clipPath>
<g id="surface164" clip-path="url(#clip54)">
<path style=" stroke:none;fill-rule:evenodd;fill:rgb(92.54902%,86.27451%,73.72549%);fill-opacity:1;" d="M 21.703125 16.808594 C 21.703125 21.035156 21.703125 25.261719 21.703125 29.488281 C 21.027344 29.550781 20.390625 29.484375 19.792969 29.296875 C 19.917969 29.296875 20.046875 29.296875 20.175781 29.296875 C 20.636719 29.136719 21.050781 29.136719 21.417969 29.296875 C 21.449219 25.101562 21.542969 20.941406 21.703125 16.808594 Z M 21.703125 16.808594 "/>
</g>
<mask id="mask54">
  <g filter="url(#alpha)">
<rect x="0" y="0" width="122" height="39" style="fill:rgb(0%,0%,0%);fill-opacity:0.737255;stroke:none;"/>
  </g>
</mask>
<clipPath id="clip55">
  <rect x="0" y="0" width="122" height="39"/>
</clipPath>
<g id="surface167" clip-path="url(#clip55)">
<path style=" stroke:none;fill-rule:evenodd;fill:rgb(86.666667%,78.431373%,63.137255%);fill-opacity:1;" d="M 26.675781 12.390625 C 26.867188 18.058594 26.929688 23.757812 26.867188 29.488281 C 26.132812 29.597656 25.496094 29.472656 24.953125 29.105469 C 25.476562 29.085938 26.019531 29.148438 26.578125 29.296875 C 26.675781 23.664062 26.707031 18.027344 26.675781 12.390625 Z M 26.675781 12.390625 "/>
</g>
<mask id="mask55">
  <g filter="url(#alpha)">
<rect x="0" y="0" width="122" height="39" style="fill:rgb(0%,0%,0%);fill-opacity:0.439216;stroke:none;"/>
  </g>
</mask>
<clipPath id="clip56">
  <rect x="0" y="0" width="122" height="39"/>
</clipPath>
<g id="surface170" clip-path="url(#clip56)">
<path style=" stroke:none;fill-rule:evenodd;fill:rgb(84.705882%,80.392157%,75.294118%);fill-opacity:1;" d="M 24 11.429688 C 24 17.707031 24 23.984375 24 30.257812 C 25.273438 30.257812 26.546875 30.257812 27.824219 30.257812 C 26.519531 30.449219 25.179688 30.511719 23.808594 30.449219 C 23.742188 24.078125 23.808594 17.738281 24 11.429688 Z M 24 11.429688 "/>
</g>
<mask id="mask56">
  <g filter="url(#alpha)">
<rect x="0" y="0" width="122" height="39" style="fill:rgb(0%,0%,0%);fill-opacity:0.133333;stroke:none;"/>
  </g>
</mask>
<clipPath id="clip57">
  <rect x="0" y="0" width="122" height="39"/>
</clipPath>
<g id="surface173" clip-path="url(#clip57)">
<path style=" stroke:none;fill-rule:evenodd;fill:rgb(89.411765%,87.843137%,88.235294%);fill-opacity:1;" d="M 4.875 5.476562 C 5.066406 14.921875 5.132812 24.398438 5.066406 33.910156 C 14.535156 33.84375 23.96875 33.910156 33.367188 34.101562 C 23.871094 34.101562 14.375 34.101562 4.875 34.101562 C 4.875 24.558594 4.875 15.015625 4.875 5.476562 Z M 4.875 5.476562 "/>
</g>
<mask id="mask57">
  <g filter="url(#alpha)">
<rect x="0" y="0" width="122" height="39" style="fill:rgb(0%,0%,0%);fill-opacity:0.0235294;stroke:none;"/>
  </g>
</mask>
<clipPath id="clip58">
  <rect x="0" y="0" width="122" height="39"/>
</clipPath>
<g id="surface176" clip-path="url(#clip58)">
<path style=" stroke:none;fill-rule:evenodd;fill:rgb(97.254902%,96.862745%,97.647059%);fill-opacity:1;" d="M 33.367188 35.0625 C 23.96875 35.253906 14.535156 35.316406 5.066406 35.253906 C 5.128906 36.0625 5.0625 36.828125 4.875 37.558594 C 4.875 36.726562 4.875 35.894531 4.875 35.0625 C 14.375 35.0625 23.871094 35.0625 33.367188 35.0625 Z M 33.367188 35.0625 "/>
</g>
</defs>
<g id="surface1">
<path style=" stroke:none;fill-rule:evenodd;fill:rgb(92.54902%,73.72549%,6.666667%);fill-opacity:1;" d="M 32.792969 8.742188 C 32.792969 15.914062 32.792969 23.085938 32.792969 30.257812 C 31.582031 30.257812 30.371094 30.257812 29.160156 30.257812 C 29.160156 23.085938 29.160156 15.914062 29.160156 8.742188 C 30.371094 8.742188 31.582031 8.742188 32.792969 8.742188 Z M 30.117188 9.894531 C 30.691406 9.894531 31.265625 9.894531 31.839844 9.894531 C 31.839844 16.296875 31.839844 22.703125 31.839844 29.105469 C 31.265625 29.105469 30.691406 29.105469 30.117188 29.105469 C 30.371094 22.695312 30.371094 16.292969 30.117188 9.894531 Z M 30.117188 9.894531 "/>
<use xlink:href="#surface5" mask="url(#mask0)"/>
<use xlink:href="#surface8" mask="url(#mask1)"/>
<path style=" stroke:none;fill-rule:evenodd;fill:rgb(94.901961%,77.254902%,27.45098%);fill-opacity:1;" d="M 27.824219 30.257812 C 26.546875 30.257812 25.273438 30.257812 24 30.257812 C 24 23.984375 24 17.707031 24 11.429688 C 24.601562 11.304688 25.238281 11.238281 25.910156 11.238281 C 26.648438 11.214844 27.347656 11.308594 28.015625 11.527344 C 28.074219 17.78125 28.007812 24.023438 27.824219 30.257812 Z M 26.675781 12.390625 C 26.707031 18.027344 26.675781 23.664062 26.578125 29.296875 C 26.019531 29.148438 25.476562 29.085938 24.953125 29.105469 C 25.113281 23.546875 25.207031 17.976562 25.242188 12.390625 C 25.71875 12.636719 26.195312 12.636719 26.675781 12.390625 Z M 26.675781 12.390625 "/>
<use xlink:href="#surface11" mask="url(#mask2)"/>
<path style=" stroke:none;fill-rule:evenodd;fill:rgb(92.941176%,74.509804%,14.117647%);fill-opacity:1;" d="M 56.316406 12.007812 C 56.285156 13.738281 56.316406 15.464844 56.410156 17.195312 C 56.546875 17.089844 56.644531 16.960938 56.699219 16.808594 C 57.0625 16.765625 57.316406 16.574219 57.460938 16.234375 C 57.707031 15.960938 58.027344 15.832031 58.417969 15.851562 C 59.445312 15.828125 60.464844 15.894531 61.476562 16.042969 C 62.332031 16.265625 63.035156 16.710938 63.582031 17.386719 C 63.628906 17.753906 63.816406 18.007812 64.15625 18.15625 C 64.140625 18.449219 64.269531 18.640625 64.539062 18.730469 C 64.953125 19.285156 65.144531 19.925781 65.109375 20.652344 C 65.089844 21.617188 65.027344 22.578125 64.921875 23.535156 C 64.347656 25.519531 63.074219 26.796875 61.09375 27.375 C 60.140625 27.375 59.183594 27.375 58.226562 27.375 C 57.910156 27.347656 57.65625 27.21875 57.460938 26.992188 C 57.316406 26.652344 57.0625 26.460938 56.699219 26.417969 C 56.722656 26.246094 56.660156 26.121094 56.507812 26.03125 C 56.320312 26.394531 56.257812 26.78125 56.316406 27.183594 C 55.359375 27.183594 54.402344 27.183594 53.445312 27.183594 C 53.445312 22.125 53.445312 17.066406 53.445312 12.007812 C 54.402344 12.007812 55.359375 12.007812 56.316406 12.007812 Z M 61.667969 23.34375 C 61.351562 23.535156 61.09375 23.789062 60.90625 24.109375 C 60.589844 24.140625 60.332031 24.269531 60.140625 24.496094 C 59.300781 24.519531 58.472656 24.457031 57.652344 24.304688 C 57.652344 24.175781 57.589844 24.109375 57.460938 24.109375 C 57.335938 23.855469 57.144531 23.664062 56.890625 23.535156 C 56.519531 22.542969 56.425781 21.519531 56.601562 20.460938 C 57.445312 18.773438 58.753906 18.292969 60.523438 19.019531 C 61.496094 19.597656 61.941406 20.464844 61.859375 21.613281 C 61.828125 22.195312 61.765625 22.773438 61.667969 23.34375 Z M 61.667969 23.34375 "/>
<path style=" stroke:none;fill-rule:evenodd;fill:rgb(93.72549%,75.686275%,22.745098%);fill-opacity:1;" d="M 67.023438 12.007812 C 68.042969 12.007812 69.0625 12.007812 70.082031 12.007812 C 70.082031 12.839844 70.082031 13.671875 70.082031 14.503906 C 69.097656 14.726562 68.078125 14.757812 67.023438 14.601562 C 66.769531 13.71875 66.769531 12.851562 67.023438 12.007812 Z M 67.023438 12.007812 "/>
<path style=" stroke:none;fill-rule:evenodd;fill:rgb(4.313725%,61.176471%,98.823529%);fill-opacity:1;" d="M 93.601562 14.503906 C 93.601562 14.441406 93.601562 14.375 93.601562 14.3125 C 93.601562 13.542969 93.601562 12.777344 93.601562 12.007812 C 94.625 12.007812 95.644531 12.007812 96.664062 12.007812 C 96.664062 12.839844 96.664062 13.671875 96.664062 14.503906 C 95.644531 14.503906 94.625 14.503906 93.601562 14.503906 Z M 93.601562 14.503906 "/>
<use xlink:href="#surface14" mask="url(#mask3)"/>
<use xlink:href="#surface17" mask="url(#mask4)"/>
<use xlink:href="#surface20" mask="url(#mask5)"/>
<path style=" stroke:none;fill-rule:evenodd;fill:rgb(93.72549%,75.294118%,19.215686%);fill-opacity:1;" d="M 18.835938 15.464844 C 20.109375 15.464844 21.386719 15.464844 22.660156 15.464844 C 22.660156 20.398438 22.660156 25.328125 22.660156 30.257812 C 21.386719 30.257812 20.109375 30.257812 18.835938 30.257812 C 18.582031 25.328125 18.582031 20.398438 18.835938 15.464844 Z M 21.320312 16.425781 C 21.511719 16.488281 21.640625 16.617188 21.703125 16.808594 C 21.542969 20.941406 21.449219 25.101562 21.417969 29.296875 C 21.050781 29.136719 20.636719 29.136719 20.175781 29.296875 C 19.984375 25.085938 19.921875 20.859375 19.984375 16.617188 C 20.472656 16.675781 20.917969 16.613281 21.320312 16.425781 Z M 21.320312 16.425781 "/>
<use xlink:href="#surface23" mask="url(#mask6)"/>
<use xlink:href="#surface26" mask="url(#mask7)"/>
<use xlink:href="#surface29" mask="url(#mask8)"/>
<path style=" stroke:none;fill-rule:evenodd;fill:rgb(92.941176%,74.901961%,18.431373%);fill-opacity:1;" d="M 48.667969 16.425781 C 48.757812 16.695312 48.949219 16.824219 49.238281 16.808594 C 49.367188 16.808594 49.429688 16.875 49.429688 17.003906 C 49.621094 17.324219 49.878906 17.578125 50.195312 17.769531 C 50.242188 18.136719 50.433594 18.394531 50.769531 18.539062 C 50.929688 18.605469 50.992188 18.734375 50.960938 18.921875 C 50.980469 19.363281 51.105469 19.746094 51.34375 20.078125 C 51.34375 21.101562 51.34375 22.125 51.34375 23.148438 C 50.921875 25.433594 49.582031 26.839844 47.328125 27.375 C 46.433594 27.375 45.542969 27.375 44.652344 27.375 C 44.457031 27.152344 44.203125 27.023438 43.886719 26.992188 C 43.695312 27.027344 43.570312 26.960938 43.503906 26.800781 C 43.441406 26.609375 43.3125 26.480469 43.121094 26.417969 C 43.066406 26.265625 42.972656 26.136719 42.832031 26.03125 C 42.738281 27.824219 42.707031 29.617188 42.738281 31.410156 C 41.707031 31.664062 40.652344 31.664062 39.582031 31.410156 C 39.425781 26.253906 39.457031 21.132812 39.679688 16.042969 C 40.699219 16.042969 41.71875 16.042969 42.738281 16.042969 C 42.707031 16.429688 42.738281 16.816406 42.832031 17.195312 C 42.972656 17.089844 43.066406 16.960938 43.121094 16.808594 C 43.183594 16.617188 43.3125 16.488281 43.503906 16.425781 C 43.945312 16.332031 44.328125 16.140625 44.652344 15.851562 C 45.441406 15.628906 46.273438 15.597656 47.136719 15.753906 C 47.730469 15.828125 48.238281 16.050781 48.667969 16.425781 Z M 46.945312 18.921875 C 47.035156 19.195312 47.226562 19.320312 47.519531 19.308594 C 48.589844 20.925781 48.527344 22.496094 47.328125 24.015625 C 46.117188 24.65625 44.90625 24.65625 43.695312 24.015625 C 43.410156 23.667969 43.15625 23.316406 42.929688 22.957031 C 42.8125 22.261719 42.75 21.554688 42.738281 20.84375 C 42.9375 20.570312 43.0625 20.25 43.121094 19.882812 C 43.441406 19.691406 43.695312 19.4375 43.886719 19.117188 C 44.875 18.683594 45.894531 18.621094 46.945312 18.921875 Z M 46.945312 18.921875 "/>
<use xlink:href="#surface32" mask="url(#mask9)"/>
<use xlink:href="#surface35" mask="url(#mask10)"/>
<path style=" stroke:none;fill-rule:evenodd;fill:rgb(25.098039%,63.529412%,98.039216%);fill-opacity:1;" d="M 98.957031 20.078125 C 98.925781 19.621094 98.859375 19.175781 98.765625 18.730469 C 99.011719 17.171875 99.90625 16.179688 101.445312 15.753906 C 104.035156 15.167969 105.882812 16.0625 106.988281 18.441406 C 106.960938 18.589844 106.898438 18.71875 106.796875 18.828125 C 106.03125 19.050781 105.265625 19.277344 104.503906 19.5 C 104.214844 19.050781 103.835938 18.699219 103.355469 18.441406 C 102.101562 18.289062 101.78125 18.738281 102.398438 19.789062 C 103.769531 20.289062 105.109375 20.867188 106.414062 21.515625 C 107.945312 23.183594 107.945312 24.847656 106.414062 26.511719 C 104.789062 27.675781 103.070312 27.996094 101.253906 27.472656 C 100.1875 27.050781 99.324219 26.378906 98.671875 25.457031 C 98.125 24.488281 98.410156 23.941406 99.53125 23.824219 C 99.914062 23.726562 100.296875 23.628906 100.679688 23.535156 C 101.0625 24.007812 101.507812 24.421875 102.015625 24.785156 C 102.527344 24.910156 103.035156 24.910156 103.546875 24.785156 C 104.09375 24.441406 104.222656 23.992188 103.929688 23.4375 C 102.703125 22.964844 101.492188 22.453125 100.296875 21.902344 C 99.648438 21.414062 99.203125 20.808594 98.957031 20.078125 Z M 98.957031 20.078125 "/>
<path style=" stroke:none;fill-rule:evenodd;fill:rgb(20.392157%,62.352941%,98.039216%);fill-opacity:1;" d="M 119.800781 19.117188 C 119.8125 19.679688 119.941406 20.191406 120.183594 20.652344 C 120.402344 21.257812 120.433594 21.894531 120.277344 22.574219 C 120.152344 22.703125 120.023438 22.828125 119.898438 22.957031 C 117.585938 22.769531 115.257812 22.703125 112.917969 22.765625 C 112.574219 22.710938 112.257812 22.773438 111.960938 22.957031 C 111.984375 23.074219 112.046875 23.140625 112.152344 23.148438 C 113.140625 24.515625 114.480469 24.996094 116.167969 24.589844 C 116.785156 24.296875 117.421875 24.171875 118.078125 24.207031 C 118.589844 24.71875 119.101562 25.230469 119.609375 25.742188 C 118.828125 26.746094 117.808594 27.289062 116.550781 27.375 C 115.53125 27.375 114.511719 27.375 113.492188 27.375 C 113.105469 27.101562 112.660156 26.976562 112.152344 26.992188 C 109.363281 25.550781 108.246094 23.246094 108.804688 20.078125 C 109.011719 19.335938 109.363281 18.695312 109.855469 18.15625 C 110.125 18.0625 110.253906 17.871094 110.238281 17.578125 C 112.613281 15.367188 115.226562 15.078125 118.078125 16.714844 C 118.921875 17.335938 119.496094 18.136719 119.800781 19.117188 Z M 117.125 20.078125 C 116.363281 20.203125 115.566406 20.269531 114.734375 20.269531 C 113.863281 20.265625 113.066406 20.140625 112.34375 19.882812 C 114.011719 18.042969 115.605469 18.105469 117.125 20.078125 Z M 117.125 20.078125 "/>
<path style=" stroke:none;fill-rule:evenodd;fill:rgb(93.333333%,74.901961%,16.078431%);fill-opacity:1;" d="M 67.023438 16.042969 C 68.042969 16.042969 69.0625 16.042969 70.082031 16.042969 C 70.082031 19.757812 70.082031 23.46875 70.082031 27.183594 C 69.0625 27.183594 68.042969 27.183594 67.023438 27.183594 C 66.769531 23.46875 66.769531 19.757812 67.023438 16.042969 Z M 67.023438 16.042969 "/>
<path style=" stroke:none;fill-rule:evenodd;fill:rgb(25.490196%,63.529412%,98.039216%);fill-opacity:1;" d="M 77.921875 22.765625 C 77.914062 23.007812 78.011719 23.199219 78.210938 23.34375 C 78.453125 23.074219 78.546875 22.753906 78.496094 22.382812 C 79.207031 20.269531 79.941406 18.15625 80.695312 16.042969 C 80.792969 15.945312 80.886719 15.851562 80.984375 15.753906 C 81.921875 15.601562 82.847656 15.632812 83.753906 15.851562 C 84.609375 18.074219 85.40625 20.316406 86.144531 22.574219 C 86.253906 23.402344 86.382812 23.464844 86.527344 22.765625 C 86.800781 22.519531 86.929688 22.199219 86.910156 21.804688 C 87.457031 19.875 88.0625 17.953125 88.726562 16.042969 C 88.824219 15.945312 88.917969 15.851562 89.015625 15.753906 C 89.90625 15.625 90.796875 15.625 91.691406 15.753906 C 91.867188 15.828125 91.996094 15.957031 92.074219 16.136719 C 90.792969 19.84375 89.453125 23.523438 88.058594 27.183594 C 86.972656 27.441406 85.890625 27.441406 84.808594 27.183594 C 84.003906 25.015625 83.238281 22.839844 82.511719 20.652344 C 82.546875 20.34375 82.453125 20.089844 82.226562 19.882812 C 82.136719 20 82.105469 20.125 82.128906 20.269531 C 81.390625 22.589844 80.59375 24.894531 79.738281 27.183594 C 78.703125 27.402344 77.652344 27.4375 76.585938 27.28125 C 75.164062 23.546875 73.761719 19.800781 72.378906 16.042969 C 72.417969 15.929688 72.480469 15.832031 72.570312 15.753906 C 73.636719 15.597656 74.6875 15.632812 75.722656 15.851562 C 76.515625 18.140625 77.25 20.445312 77.921875 22.765625 Z M 77.921875 22.765625 "/>
<path style=" stroke:none;fill-rule:evenodd;fill:rgb(21.568627%,63.137255%,98.823529%);fill-opacity:1;" d="M 93.601562 16.042969 C 94.625 16.042969 95.644531 16.042969 96.664062 16.042969 C 96.664062 19.757812 96.664062 23.46875 96.664062 27.183594 C 95.644531 27.183594 94.625 27.183594 93.601562 27.183594 C 93.351562 23.488281 93.351562 19.773438 93.601562 16.042969 Z M 93.601562 16.042969 "/>
<use xlink:href="#surface38" mask="url(#mask11)"/>
<use xlink:href="#surface41" mask="url(#mask12)"/>
<use xlink:href="#surface44" mask="url(#mask13)"/>
<use xlink:href="#surface47" mask="url(#mask14)"/>
<use xlink:href="#surface50" mask="url(#mask15)"/>
<use xlink:href="#surface53" mask="url(#mask16)"/>
<use xlink:href="#surface56" mask="url(#mask17)"/>
<use xlink:href="#surface59" mask="url(#mask18)"/>
<use xlink:href="#surface62" mask="url(#mask19)"/>
<use xlink:href="#surface65" mask="url(#mask20)"/>
<path style=" stroke:none;fill-rule:evenodd;fill:rgb(92.941176%,74.117647%,6.666667%);fill-opacity:1;" d="M 13.863281 19.5 C 15.074219 19.5 16.285156 19.5 17.496094 19.5 C 17.496094 23.085938 17.496094 26.671875 17.496094 30.257812 C 16.285156 30.257812 15.074219 30.257812 13.863281 30.257812 C 13.863281 26.671875 13.863281 23.085938 13.863281 19.5 Z M 16.539062 20.652344 C 16.285156 23.46875 16.285156 26.289062 16.539062 29.105469 C 15.96875 29.105469 15.394531 29.105469 14.820312 29.105469 C 14.820312 26.289062 14.820312 23.46875 14.820312 20.652344 C 15.394531 20.652344 15.96875 20.652344 16.539062 20.652344 Z M 16.539062 20.652344 "/>
<use xlink:href="#surface68" mask="url(#mask21)"/>
<use xlink:href="#surface71" mask="url(#mask22)"/>
<use xlink:href="#surface74" mask="url(#mask23)"/>
<use xlink:href="#surface77" mask="url(#mask24)"/>
<use xlink:href="#surface80" mask="url(#mask25)"/>
<use xlink:href="#surface83" mask="url(#mask26)"/>
<use xlink:href="#surface86" mask="url(#mask27)"/>
<use xlink:href="#surface89" mask="url(#mask28)"/>
<use xlink:href="#surface92" mask="url(#mask29)"/>
<use xlink:href="#surface95" mask="url(#mask30)"/>
<use xlink:href="#surface98" mask="url(#mask31)"/>
<use xlink:href="#surface101" mask="url(#mask32)"/>
<path style=" stroke:none;fill-rule:evenodd;fill:rgb(64.313725%,74.901961%,91.764706%);fill-opacity:1;" d="M 78.496094 22.382812 C 78.546875 22.753906 78.453125 23.074219 78.210938 23.34375 C 78.011719 23.199219 77.914062 23.007812 77.921875 22.765625 C 78.167969 22.710938 78.359375 22.582031 78.496094 22.382812 Z M 78.496094 22.382812 "/>
<use xlink:href="#surface104" mask="url(#mask33)"/>
<use xlink:href="#surface107" mask="url(#mask34)"/>
<use xlink:href="#surface110" mask="url(#mask35)"/>
<use xlink:href="#surface113" mask="url(#mask36)"/>
<use xlink:href="#surface116" mask="url(#mask37)"/>
<use xlink:href="#surface119" mask="url(#mask38)"/>
<use xlink:href="#surface122" mask="url(#mask39)"/>
<use xlink:href="#surface125" mask="url(#mask40)"/>
<use xlink:href="#surface128" mask="url(#mask41)"/>
<use xlink:href="#surface131" mask="url(#mask42)"/>
<use xlink:href="#surface134" mask="url(#mask43)"/>
<path style=" stroke:none;fill-rule:evenodd;fill:rgb(92.941176%,74.117647%,6.666667%);fill-opacity:1;" d="M 8.699219 23.148438 C 9.910156 23.148438 11.121094 23.148438 12.332031 23.148438 C 12.332031 25.519531 12.332031 27.890625 12.332031 30.257812 C 11.121094 30.257812 9.910156 30.257812 8.699219 30.257812 C 8.699219 27.890625 8.699219 25.519531 8.699219 23.148438 Z M 11.378906 24.109375 C 11.4375 25.855469 11.371094 27.585938 11.1875 29.296875 C 10.6875 29.132812 10.210938 29.070312 9.753906 29.105469 C 9.625 27.503906 9.625 25.902344 9.753906 24.304688 C 10.28125 24.339844 10.820312 24.273438 11.378906 24.109375 Z M 11.378906 24.109375 "/>
<use xlink:href="#surface137" mask="url(#mask44)"/>
<use xlink:href="#surface140" mask="url(#mask45)"/>
<path style=" stroke:none;fill-rule:evenodd;fill:rgb(89.803922%,78.431373%,55.686275%);fill-opacity:1;" d="M 56.699219 26.417969 C 57.0625 26.460938 57.316406 26.652344 57.460938 26.992188 C 57.097656 26.945312 56.84375 26.753906 56.699219 26.417969 Z M 56.699219 26.417969 "/>
<use xlink:href="#surface143" mask="url(#mask46)"/>
<path style=" stroke:none;fill-rule:evenodd;fill:rgb(59.215686%,72.941176%,91.372549%);fill-opacity:1;" d="M 112.152344 26.992188 C 112.660156 26.976562 113.105469 27.101562 113.492188 27.375 C 112.984375 27.394531 112.539062 27.265625 112.152344 26.992188 Z M 112.152344 26.992188 "/>
<use xlink:href="#surface146" mask="url(#mask47)"/>
<use xlink:href="#surface149" mask="url(#mask48)"/>
<use xlink:href="#surface152" mask="url(#mask49)"/>
<use xlink:href="#surface155" mask="url(#mask50)"/>
<use xlink:href="#surface158" mask="url(#mask51)"/>
<use xlink:href="#surface161" mask="url(#mask52)"/>
<use xlink:href="#surface164" mask="url(#mask53)"/>
<use xlink:href="#surface167" mask="url(#mask54)"/>
<use xlink:href="#surface170" mask="url(#mask55)"/>
<use xlink:href="#surface173" mask="url(#mask56)"/>
<path style=" stroke:none;fill-rule:evenodd;fill:rgb(93.72549%,76.078431%,22.352941%);fill-opacity:1;" d="M 4.875 5.476562 C 4.875 15.015625 4.875 24.558594 4.875 34.101562 C 14.375 34.101562 23.871094 34.101562 33.367188 34.101562 C 33.625 34.421875 33.625 34.742188 33.367188 35.0625 C 23.871094 35.0625 14.375 35.0625 4.875 35.0625 C 4.875 35.894531 4.875 36.726562 4.875 37.558594 C 4.546875 37.808594 4.195312 37.808594 3.824219 37.558594 C 3.671875 36.804688 3.703125 36.070312 3.921875 35.351562 C 3.824219 35.253906 3.730469 35.15625 3.632812 35.0625 C 2.816406 35.34375 2.019531 35.308594 1.242188 34.964844 C 1.417969 34.640625 1.480469 34.285156 1.433594 33.910156 C 2.265625 33.941406 3.09375 33.910156 3.921875 33.8125 C 3.699219 24.378906 3.664062 14.933594 3.824219 5.476562 C 4.195312 5.222656 4.546875 5.222656 4.875 5.476562 Z M 4.875 5.476562 "/>
<use xlink:href="#surface176" mask="url(#mask57)"/>
</g>
</svg>
